TITLE ""
FILE "TOEIC LR Kinnojyukugo_08.mp3" MP3
  TRACK 01 AUDIO
    TITLE "TOEIC LR Kinnojyukugo_08_0001"
    INDEX 01 00:00:00
  TRACK 02 AUDIO
    TITLE "TOEIC LR Kinnojyukugo_08_0002"
    INDEX 01 00:00:12
  TRACK 03 AUDIO
    TITLE "TOEIC LR Kinnojyukugo_08_0003"
    INDEX 01 00:01:12
  TRACK 04 AUDIO
    TITLE "TOEIC LR Kinnojyukugo_08_0004"
    INDEX 01 00:01:49
  TRACK 05 AUDIO
    TITLE "TOEIC LR Kinnojyukugo_08_0005"
    INDEX 01 00:04:32
  TRACK 06 AUDIO
    TITLE "TOEIC LR Kinnojyukugo_08_0006"
    INDEX 01 00:05:00
  TRACK 07 AUDIO
    TITLE "TOEIC LR Kinnojyukugo_08_0007"
    INDEX 01 00:06:38
  TRACK 08 AUDIO
    TITLE "TOEIC LR Kinnojyukugo_08_0008"
    INDEX 01 00:06:72
  TRACK 09 AUDIO
    TITLE "TOEIC LR Kinnojyukugo_08_0009"
    INDEX 01 00:08:33
  TRACK 10 AUDIO
    TITLE "TOEIC LR Kinnojyukugo_08_0010"
    INDEX 01 00:08:69
  TRACK 11 AUDIO
    TITLE "TOEIC LR Kinnojyukugo_08_0011"
    INDEX 01 00:10:48
  TRACK 12 AUDIO
    TITLE "TOEIC LR Kinnojyukugo_08_0012"
    INDEX 01 00:11:08
  TRACK 13 AUDIO
    TITLE "TOEIC LR Kinnojyukugo_08_0013"
    INDEX 01 00:12:33
  TRACK 14 AUDIO
    TITLE "TOEIC LR Kinnojyukugo_08_0014"
    INDEX 01 00:12:72
  TRACK 15 AUDIO
    TITLE "TOEIC LR Kinnojyukugo_08_0015"
    INDEX 01 00:14:57
  TRACK 16 AUDIO
    TITLE "TOEIC LR Kinnojyukugo_08_0016"
    INDEX 01 00:15:26
  TRACK 17 AUDIO
    TITLE "TOEIC LR Kinnojyukugo_08_0017"
    INDEX 01 00:16:52
  TRACK 18 AUDIO
    TITLE "TOEIC LR Kinnojyukugo_08_0018"
    INDEX 01 00:17:56
  TRACK 19 AUDIO
    TITLE "TOEIC LR Kinnojyukugo_08_0019"
    INDEX 01 00:18:63
  TRACK 20 AUDIO
    TITLE "TOEIC LR Kinnojyukugo_08_0020"
    INDEX 01 00:19:25
  TRACK 21 AUDIO
    TITLE "TOEIC LR Kinnojyukugo_08_0021"
    INDEX 01 00:25:14
  TRACK 22 AUDIO
    TITLE "TOEIC LR Kinnojyukugo_08_0022"
    INDEX 01 00:25:53
  TRACK 23 AUDIO
    TITLE "TOEIC LR Kinnojyukugo_08_0023"
    INDEX 01 00:27:21
  TRACK 24 AUDIO
    TITLE "TOEIC LR Kinnojyukugo_08_0024"
    INDEX 01 00:27:58
  TRACK 25 AUDIO
    TITLE "TOEIC LR Kinnojyukugo_08_0025"
    INDEX 01 00:29:14
  TRACK 26 AUDIO
    TITLE "TOEIC LR Kinnojyukugo_08_0026"
    INDEX 01 00:29:51
  TRACK 27 AUDIO
    TITLE "TOEIC LR Kinnojyukugo_08_0027"
    INDEX 01 00:31:21
  TRACK 28 AUDIO
    TITLE "TOEIC LR Kinnojyukugo_08_0028"
    INDEX 01 00:31:60
  TRACK 29 AUDIO
    TITLE "TOEIC LR Kinnojyukugo_08_0029"
    INDEX 01 00:33:14
  TRACK 30 AUDIO
    TITLE "TOEIC LR Kinnojyukugo_08_0030"
    INDEX 01 00:33:45
  TRACK 31 AUDIO
    TITLE "TOEIC LR Kinnojyukugo_08_0031"
    INDEX 01 00:35:36
  TRACK 32 AUDIO
    TITLE "TOEIC LR Kinnojyukugo_08_0032"
    INDEX 01 00:36:00
  TRACK 33 AUDIO
    TITLE "TOEIC LR Kinnojyukugo_08_0033"
    INDEX 01 00:37:58
  TRACK 34 AUDIO
    TITLE "TOEIC LR Kinnojyukugo_08_0034"
    INDEX 01 00:38:60
  TRACK 35 AUDIO
    TITLE "TOEIC LR Kinnojyukugo_08_0035"
    INDEX 01 00:39:71
  TRACK 36 AUDIO
    TITLE "TOEIC LR Kinnojyukugo_08_0036"
    INDEX 01 00:40:33
  TRACK 37 AUDIO
    TITLE "TOEIC LR Kinnojyukugo_08_0037"
    INDEX 01 00:45:66
  TRACK 38 AUDIO
    TITLE "TOEIC LR Kinnojyukugo_08_0038"
    INDEX 01 00:46:36
  TRACK 39 AUDIO
    TITLE "TOEIC LR Kinnojyukugo_08_0039"
    INDEX 01 00:48:00
  TRACK 40 AUDIO
    TITLE "TOEIC LR Kinnojyukugo_08_0040"
    INDEX 01 00:48:35
  TRACK 41 AUDIO
    TITLE "TOEIC LR Kinnojyukugo_08_0041"
    INDEX 01 00:49:73
  TRACK 42 AUDIO
    TITLE "TOEIC LR Kinnojyukugo_08_0042"
    INDEX 01 00:50:32
  TRACK 43 AUDIO
    TITLE "TOEIC LR Kinnojyukugo_08_0043"
    INDEX 01 00:52:03
  TRACK 44 AUDIO
    TITLE "TOEIC LR Kinnojyukugo_08_0044"
    INDEX 01 00:52:42
  TRACK 45 AUDIO
    TITLE "TOEIC LR Kinnojyukugo_08_0045"
    INDEX 01 00:54:35
  TRACK 46 AUDIO
    TITLE "TOEIC LR Kinnojyukugo_08_0046"
    INDEX 01 00:54:73
  TRACK 47 AUDIO
    TITLE "TOEIC LR Kinnojyukugo_08_0047"
    INDEX 01 00:56:48
  TRACK 48 AUDIO
    TITLE "TOEIC LR Kinnojyukugo_08_0048"
    INDEX 01 00:57:12
  TRACK 49 AUDIO
    TITLE "TOEIC LR Kinnojyukugo_08_0049"
    INDEX 01 00:58:33
  TRACK 50 AUDIO
    TITLE "TOEIC LR Kinnojyukugo_08_0050"
    INDEX 01 00:59:37
  TRACK 51 AUDIO
    TITLE "TOEIC LR Kinnojyukugo_08_0051"
    INDEX 01 01:00:42
  TRACK 52 AUDIO
    TITLE "TOEIC LR Kinnojyukugo_08_0052"
    INDEX 01 01:01:04
  TRACK 53 AUDIO
    TITLE "TOEIC LR Kinnojyukugo_08_0053"
    INDEX 01 01:02:37
  TRACK 54 AUDIO
    TITLE "TOEIC LR Kinnojyukugo_08_0054"
    INDEX 01 01:03:01
  TRACK 55 AUDIO
    TITLE "TOEIC LR Kinnojyukugo_08_0055"
    INDEX 01 01:04:61
  TRACK 56 AUDIO
    TITLE "TOEIC LR Kinnojyukugo_08_0056"
    INDEX 01 01:05:25
  TRACK 57 AUDIO
    TITLE "TOEIC LR Kinnojyukugo_08_0057"
    INDEX 01 01:06:60
  TRACK 58 AUDIO
    TITLE "TOEIC LR Kinnojyukugo_08_0058"
    INDEX 01 01:07:20
  TRACK 59 AUDIO
    TITLE "TOEIC LR Kinnojyukugo_08_0059"
    INDEX 01 01:09:04
  TRACK 60 AUDIO
    TITLE "TOEIC LR Kinnojyukugo_08_0060"
    INDEX 01 01:09:37
  TRACK 61 AUDIO
    TITLE "TOEIC LR Kinnojyukugo_08_0061"
    INDEX 01 01:10:66
  TRACK 62 AUDIO
    TITLE "TOEIC LR Kinnojyukugo_08_0062"
    INDEX 01 01:11:28
  TRACK 63 AUDIO
    TITLE "TOEIC LR Kinnojyukugo_08_0063"
    INDEX 01 01:13:19
  TRACK 64 AUDIO
    TITLE "TOEIC LR Kinnojyukugo_08_0064"
    INDEX 01 01:13:54
  TRACK 65 AUDIO
    TITLE "TOEIC LR Kinnojyukugo_08_0065"
    INDEX 01 01:15:16
  TRACK 66 AUDIO
    TITLE "TOEIC LR Kinnojyukugo_08_0066"
    INDEX 01 01:16:15
  TRACK 67 AUDIO
    TITLE "TOEIC LR Kinnojyukugo_08_0067"
    INDEX 01 01:17:15
  TRACK 68 AUDIO
    TITLE "TOEIC LR Kinnojyukugo_08_0068"
    INDEX 01 01:17:56
  TRACK 69 AUDIO
    TITLE "TOEIC LR Kinnojyukugo_08_0069"
    INDEX 01 01:21:30
  TRACK 70 AUDIO
    TITLE "TOEIC LR Kinnojyukugo_08_0070"
    INDEX 01 01:21:70
  TRACK 71 AUDIO
    TITLE "TOEIC LR Kinnojyukugo_08_0071"
    INDEX 01 01:23:41
  TRACK 72 AUDIO
    TITLE "TOEIC LR Kinnojyukugo_08_0072"
    INDEX 01 01:24:03
  TRACK 73 AUDIO
    TITLE "TOEIC LR Kinnojyukugo_08_0073"
    INDEX 01 01:25:58
  TRACK 74 AUDIO
    TITLE "TOEIC LR Kinnojyukugo_08_0074"
    INDEX 01 01:26:18
  TRACK 75 AUDIO
    TITLE "TOEIC LR Kinnojyukugo_08_0075"
    INDEX 01 01:27:54
  TRACK 76 AUDIO
    TITLE "TOEIC LR Kinnojyukugo_08_0076"
    INDEX 01 01:28:15
  TRACK 77 AUDIO
    TITLE "TOEIC LR Kinnojyukugo_08_0077"
    INDEX 01 01:29:42
  TRACK 78 AUDIO
    TITLE "TOEIC LR Kinnojyukugo_08_0078"
    INDEX 01 01:30:04
  TRACK 79 AUDIO
    TITLE "TOEIC LR Kinnojyukugo_08_0079"
    INDEX 01 01:31:58
  TRACK 80 AUDIO
    TITLE "TOEIC LR Kinnojyukugo_08_0080"
    INDEX 01 01:32:20
  TRACK 81 AUDIO
    TITLE "TOEIC LR Kinnojyukugo_08_0081"
    INDEX 01 01:33:53
  TRACK 82 AUDIO
    TITLE "TOEIC LR Kinnojyukugo_08_0082"
    INDEX 01 01:34:54
  TRACK 83 AUDIO
    TITLE "TOEIC LR Kinnojyukugo_08_0083"
    INDEX 01 01:35:52
  TRACK 84 AUDIO
    TITLE "TOEIC LR Kinnojyukugo_08_0084"
    INDEX 01 01:36:14
  TRACK 85 AUDIO
    TITLE "TOEIC LR Kinnojyukugo_08_0085"
    INDEX 01 01:38:25
  TRACK 86 AUDIO
    TITLE "TOEIC LR Kinnojyukugo_08_0086"
    INDEX 01 01:38:66
  TRACK 87 AUDIO
    TITLE "TOEIC LR Kinnojyukugo_08_0087"
    INDEX 01 01:40:28
  TRACK 88 AUDIO
    TITLE "TOEIC LR Kinnojyukugo_08_0088"
    INDEX 01 01:40:65
  TRACK 89 AUDIO
    TITLE "TOEIC LR Kinnojyukugo_08_0089"
    INDEX 01 01:42:15
  TRACK 90 AUDIO
    TITLE "TOEIC LR Kinnojyukugo_08_0090"
    INDEX 01 01:42:50
  TRACK 91 AUDIO
    TITLE "TOEIC LR Kinnojyukugo_08_0091"
    INDEX 01 01:44:10
  TRACK 92 AUDIO
    TITLE "TOEIC LR Kinnojyukugo_08_0092"
    INDEX 01 01:44:47
  TRACK 93 AUDIO
    TITLE "TOEIC LR Kinnojyukugo_08_0093"
    INDEX 01 01:46:28
  TRACK 94 AUDIO
    TITLE "TOEIC LR Kinnojyukugo_08_0094"
    INDEX 01 01:46:67
  TRACK 95 AUDIO
    TITLE "TOEIC LR Kinnojyukugo_08_0095"
    INDEX 01 01:49:05
  TRACK 96 AUDIO
    TITLE "TOEIC LR Kinnojyukugo_08_0096"
    INDEX 01 01:49:42
  TRACK 97 AUDIO
    TITLE "TOEIC LR Kinnojyukugo_08_0097"
    INDEX 01 01:51:45
  TRACK 98 AUDIO
    TITLE "TOEIC LR Kinnojyukugo_08_0098"
    INDEX 01 01:52:45
  TRACK 99 AUDIO
    TITLE "TOEIC LR Kinnojyukugo_08_0099"
    INDEX 01 01:53:56
  TRACK 100 AUDIO
    TITLE "TOEIC LR Kinnojyukugo_08_0100"
    INDEX 01 01:54:20
  TRACK 101 AUDIO
    TITLE "TOEIC LR Kinnojyukugo_08_0101"
    INDEX 01 01:58:35
  TRACK 102 AUDIO
    TITLE "TOEIC LR Kinnojyukugo_08_0102"
    INDEX 01 01:58:73
  TRACK 103 AUDIO
    TITLE "TOEIC LR Kinnojyukugo_08_0103"
    INDEX 01 02:00:36
  TRACK 104 AUDIO
    TITLE "TOEIC LR Kinnojyukugo_08_0104"
    INDEX 01 02:01:00
  TRACK 105 AUDIO
    TITLE "TOEIC LR Kinnojyukugo_08_0105"
    INDEX 01 02:02:47
  TRACK 106 AUDIO
    TITLE "TOEIC LR Kinnojyukugo_08_0106"
    INDEX 01 02:03:11
  TRACK 107 AUDIO
    TITLE "TOEIC LR Kinnojyukugo_08_0107"
    INDEX 01 02:05:28
  TRACK 108 AUDIO
    TITLE "TOEIC LR Kinnojyukugo_08_0108"
    INDEX 01 02:06:07
  TRACK 109 AUDIO
    TITLE "TOEIC LR Kinnojyukugo_08_0109"
    INDEX 01 02:07:56
  TRACK 110 AUDIO
    TITLE "TOEIC LR Kinnojyukugo_08_0110"
    INDEX 01 02:08:18
  TRACK 111 AUDIO
    TITLE "TOEIC LR Kinnojyukugo_08_0111"
    INDEX 01 02:10:03
  TRACK 112 AUDIO
    TITLE "TOEIC LR Kinnojyukugo_08_0112"
    INDEX 01 02:10:43
  TRACK 113 AUDIO
    TITLE "TOEIC LR Kinnojyukugo_08_0113"
    INDEX 01 02:12:08
  TRACK 114 AUDIO
    TITLE "TOEIC LR Kinnojyukugo_08_0114"
    INDEX 01 02:13:10
  TRACK 115 AUDIO
    TITLE "TOEIC LR Kinnojyukugo_08_0115"
    INDEX 01 02:14:23
  TRACK 116 AUDIO
    TITLE "TOEIC LR Kinnojyukugo_08_0116"
    INDEX 01 02:14:60
  TRACK 117 AUDIO
    TITLE "TOEIC LR Kinnojyukugo_08_0117"
    INDEX 01 02:17:29
  TRACK 118 AUDIO
    TITLE "TOEIC LR Kinnojyukugo_08_0118"
    INDEX 01 02:17:68
  TRACK 119 AUDIO
    TITLE "TOEIC LR Kinnojyukugo_08_0119"
    INDEX 01 02:19:34
  TRACK 120 AUDIO
    TITLE "TOEIC LR Kinnojyukugo_08_0120"
    INDEX 01 02:19:73
  TRACK 121 AUDIO
    TITLE "TOEIC LR Kinnojyukugo_08_0121"
    INDEX 01 02:21:50
  TRACK 122 AUDIO
    TITLE "TOEIC LR Kinnojyukugo_08_0122"
    INDEX 01 02:22:08
  TRACK 123 AUDIO
    TITLE "TOEIC LR Kinnojyukugo_08_0123"
    INDEX 01 02:23:39
  TRACK 124 AUDIO
    TITLE "TOEIC LR Kinnojyukugo_08_0124"
    INDEX 01 02:24:01
  TRACK 125 AUDIO
    TITLE "TOEIC LR Kinnojyukugo_08_0125"
    INDEX 01 02:25:44
  TRACK 126 AUDIO
    TITLE "TOEIC LR Kinnojyukugo_08_0126"
    INDEX 01 02:26:04
  TRACK 127 AUDIO
    TITLE "TOEIC LR Kinnojyukugo_08_0127"
    INDEX 01 02:27:47
  TRACK 128 AUDIO
    TITLE "TOEIC LR Kinnojyukugo_08_0128"
    INDEX 01 02:28:09
  TRACK 129 AUDIO
    TITLE "TOEIC LR Kinnojyukugo_08_0129"
    INDEX 01 02:29:57
  TRACK 130 AUDIO
    TITLE "TOEIC LR Kinnojyukugo_08_0130"
    INDEX 01 02:30:57
  TRACK 131 AUDIO
    TITLE "TOEIC LR Kinnojyukugo_08_0131"
    INDEX 01 02:31:70
  TRACK 132 AUDIO
    TITLE "TOEIC LR Kinnojyukugo_08_0132"
    INDEX 01 02:32:32
  TRACK 133 AUDIO
    TITLE "TOEIC LR Kinnojyukugo_08_0133"
    INDEX 01 02:38:23
  TRACK 134 AUDIO
    TITLE "TOEIC LR Kinnojyukugo_08_0134"
    INDEX 01 02:38:60
  TRACK 135 AUDIO
    TITLE "TOEIC LR Kinnojyukugo_08_0135"
    INDEX 01 02:40:36
  TRACK 136 AUDIO
    TITLE "TOEIC LR Kinnojyukugo_08_0136"
    INDEX 01 02:41:00
  TRACK 137 AUDIO
    TITLE "TOEIC LR Kinnojyukugo_08_0137"
    INDEX 01 02:42:54
  TRACK 138 AUDIO
    TITLE "TOEIC LR Kinnojyukugo_08_0138"
    INDEX 01 02:43:15
  TRACK 139 AUDIO
    TITLE "TOEIC LR Kinnojyukugo_08_0139"
    INDEX 01 02:45:11
  TRACK 140 AUDIO
    TITLE "TOEIC LR Kinnojyukugo_08_0140"
    INDEX 01 02:45:51
  TRACK 141 AUDIO
    TITLE "TOEIC LR Kinnojyukugo_08_0141"
    INDEX 01 02:47:18
  TRACK 142 AUDIO
    TITLE "TOEIC LR Kinnojyukugo_08_0142"
    INDEX 01 02:47:57
  TRACK 143 AUDIO
    TITLE "TOEIC LR Kinnojyukugo_08_0143"
    INDEX 01 02:49:50
  TRACK 144 AUDIO
    TITLE "TOEIC LR Kinnojyukugo_08_0144"
    INDEX 01 02:50:15
  TRACK 145 AUDIO
    TITLE "TOEIC LR Kinnojyukugo_08_0145"
    INDEX 01 02:51:63
  TRACK 146 AUDIO
    TITLE "TOEIC LR Kinnojyukugo_08_0146"
    INDEX 01 02:52:64
  TRACK 147 AUDIO
    TITLE "TOEIC LR Kinnojyukugo_08_0147"
    INDEX 01 02:54:01
  TRACK 148 AUDIO
    TITLE "TOEIC LR Kinnojyukugo_08_0148"
    INDEX 01 02:54:38
  TRACK 149 AUDIO
    TITLE "TOEIC LR Kinnojyukugo_08_0149"
    INDEX 01 02:55:39
  TRACK 150 AUDIO
    TITLE "TOEIC LR Kinnojyukugo_08_0150"
    INDEX 01 02:56:03
  TRACK 151 AUDIO
    TITLE "TOEIC LR Kinnojyukugo_08_0151"
    INDEX 01 02:57:46
  TRACK 152 AUDIO
    TITLE "TOEIC LR Kinnojyukugo_08_0152"
    INDEX 01 02:58:08
  TRACK 153 AUDIO
    TITLE "TOEIC LR Kinnojyukugo_08_0153"
    INDEX 01 02:59:49
  TRACK 154 AUDIO
    TITLE "TOEIC LR Kinnojyukugo_08_0154"
    INDEX 01 03:00:09
  TRACK 155 AUDIO
    TITLE "TOEIC LR Kinnojyukugo_08_0155"
    INDEX 01 03:01:52
  TRACK 156 AUDIO
    TITLE "TOEIC LR Kinnojyukugo_08_0156"
    INDEX 01 03:02:14
  TRACK 157 AUDIO
    TITLE "TOEIC LR Kinnojyukugo_08_0157"
    INDEX 01 03:03:66
  TRACK 158 AUDIO
    TITLE "TOEIC LR Kinnojyukugo_08_0158"
    INDEX 01 03:04:26
  TRACK 159 AUDIO
    TITLE "TOEIC LR Kinnojyukugo_08_0159"
    INDEX 01 03:05:73
  TRACK 160 AUDIO
    TITLE "TOEIC LR Kinnojyukugo_08_0160"
    INDEX 01 03:06:35
  TRACK 161 AUDIO
    TITLE "TOEIC LR Kinnojyukugo_08_0161"
    INDEX 01 03:08:01
  TRACK 162 AUDIO
    TITLE "TOEIC LR Kinnojyukugo_08_0162"
    INDEX 01 03:09:00
  TRACK 163 AUDIO
    TITLE "TOEIC LR Kinnojyukugo_08_0163"
    INDEX 01 03:10:04
  TRACK 164 AUDIO
    TITLE "TOEIC LR Kinnojyukugo_08_0164"
    INDEX 01 03:10:43
  TRACK 165 AUDIO
    TITLE "TOEIC LR Kinnojyukugo_08_0165"
    INDEX 01 03:16:73
  TRACK 166 AUDIO
    TITLE "TOEIC LR Kinnojyukugo_08_0166"
    INDEX 01 03:17:37
  TRACK 167 AUDIO
    TITLE "TOEIC LR Kinnojyukugo_08_0167"
    INDEX 01 03:19:22
  TRACK 168 AUDIO
    TITLE "TOEIC LR Kinnojyukugo_08_0168"
    INDEX 01 03:19:59
  TRACK 169 AUDIO
    TITLE "TOEIC LR Kinnojyukugo_08_0169"
    INDEX 01 03:21:23
  TRACK 170 AUDIO
    TITLE "TOEIC LR Kinnojyukugo_08_0170"
    INDEX 01 03:21:62
  TRACK 171 AUDIO
    TITLE "TOEIC LR Kinnojyukugo_08_0171"
    INDEX 01 03:23:59
  TRACK 172 AUDIO
    TITLE "TOEIC LR Kinnojyukugo_08_0172"
    INDEX 01 03:24:23
  TRACK 173 AUDIO
    TITLE "TOEIC LR Kinnojyukugo_08_0173"
    INDEX 01 03:25:56
  TRACK 174 AUDIO
    TITLE "TOEIC LR Kinnojyukugo_08_0174"
    INDEX 01 03:26:20
  TRACK 175 AUDIO
    TITLE "TOEIC LR Kinnojyukugo_08_0175"
    INDEX 01 03:28:25
  TRACK 176 AUDIO
    TITLE "TOEIC LR Kinnojyukugo_08_0176"
    INDEX 01 03:28:60
  TRACK 177 AUDIO
    TITLE "TOEIC LR Kinnojyukugo_08_0177"
    INDEX 01 03:30:12
  TRACK 178 AUDIO
    TITLE "TOEIC LR Kinnojyukugo_08_0178"
    INDEX 01 03:31:14
  TRACK 179 AUDIO
    TITLE "TOEIC LR Kinnojyukugo_08_0179"
    INDEX 01 03:32:17
  TRACK 180 AUDIO
    TITLE "TOEIC LR Kinnojyukugo_08_0180"
    INDEX 01 03:32:58
  TRACK 181 AUDIO
    TITLE "TOEIC LR Kinnojyukugo_08_0181"
    INDEX 01 03:39:72
  TRACK 182 AUDIO
    TITLE "TOEIC LR Kinnojyukugo_08_0182"
    INDEX 01 03:40:36
  TRACK 183 AUDIO
    TITLE "TOEIC LR Kinnojyukugo_08_0183"
    INDEX 01 03:42:54
  TRACK 184 AUDIO
    TITLE "TOEIC LR Kinnojyukugo_08_0184"
    INDEX 01 03:43:15
  TRACK 185 AUDIO
    TITLE "TOEIC LR Kinnojyukugo_08_0185"
    INDEX 01 03:45:00
  TRACK 186 AUDIO
    TITLE "TOEIC LR Kinnojyukugo_08_0186"
    INDEX 01 03:45:39
  TRACK 187 AUDIO
    TITLE "TOEIC LR Kinnojyukugo_08_0187"
    INDEX 01 03:47:11
  TRACK 188 AUDIO
    TITLE "TOEIC LR Kinnojyukugo_08_0188"
    INDEX 01 03:47:46
  TRACK 189 AUDIO
    TITLE "TOEIC LR Kinnojyukugo_08_0189"
    INDEX 01 03:49:10
  TRACK 190 AUDIO
    TITLE "TOEIC LR Kinnojyukugo_08_0190"
    INDEX 01 03:49:51
  TRACK 191 AUDIO
    TITLE "TOEIC LR Kinnojyukugo_08_0191"
    INDEX 01 03:51:24
  TRACK 192 AUDIO
    TITLE "TOEIC LR Kinnojyukugo_08_0192"
    INDEX 01 03:51:63
  TRACK 193 AUDIO
    TITLE "TOEIC LR Kinnojyukugo_08_0193"
    INDEX 01 03:53:23
  TRACK 194 AUDIO
    TITLE "TOEIC LR Kinnojyukugo_08_0194"
    INDEX 01 03:54:22
  TRACK 195 AUDIO
    TITLE "TOEIC LR Kinnojyukugo_08_0195"
    INDEX 01 03:55:24
  TRACK 196 AUDIO
    TITLE "TOEIC LR Kinnojyukugo_08_0196"
    INDEX 01 03:55:59
  TRACK 197 AUDIO
    TITLE "TOEIC LR Kinnojyukugo_08_0197"
    INDEX 01 03:58:42
  TRACK 198 AUDIO
    TITLE "TOEIC LR Kinnojyukugo_08_0198"
    INDEX 01 03:59:06
  TRACK 199 AUDIO
    TITLE "TOEIC LR Kinnojyukugo_08_0199"
    INDEX 01 04:00:68
  TRACK 200 AUDIO
    TITLE "TOEIC LR Kinnojyukugo_08_0200"
    INDEX 01 04:01:30
  TRACK 201 AUDIO
    TITLE "TOEIC LR Kinnojyukugo_08_0201"
    INDEX 01 04:02:71
  TRACK 202 AUDIO
    TITLE "TOEIC LR Kinnojyukugo_08_0202"
    INDEX 01 04:03:35
  TRACK 203 AUDIO
    TITLE "TOEIC LR Kinnojyukugo_08_0203"
    INDEX 01 04:05:24
  TRACK 204 AUDIO
    TITLE "TOEIC LR Kinnojyukugo_08_0204"
    INDEX 01 04:05:59
  TRACK 205 AUDIO
    TITLE "TOEIC LR Kinnojyukugo_08_0205"
    INDEX 01 04:07:29
  TRACK 206 AUDIO
    TITLE "TOEIC LR Kinnojyukugo_08_0206"
    INDEX 01 04:07:68
  TRACK 207 AUDIO
    TITLE "TOEIC LR Kinnojyukugo_08_0207"
    INDEX 01 04:09:40
  TRACK 208 AUDIO
    TITLE "TOEIC LR Kinnojyukugo_08_0208"
    INDEX 01 04:10:02
  TRACK 209 AUDIO
    TITLE "TOEIC LR Kinnojyukugo_08_0209"
    INDEX 01 04:11:35
  TRACK 210 AUDIO
    TITLE "TOEIC LR Kinnojyukugo_08_0210"
    INDEX 01 04:12:36
  TRACK 211 AUDIO
    TITLE "TOEIC LR Kinnojyukugo_08_0211"
    INDEX 01 04:13:43
  TRACK 212 AUDIO
    TITLE "TOEIC LR Kinnojyukugo_08_0212"
    INDEX 01 04:14:07
  TRACK 213 AUDIO
    TITLE "TOEIC LR Kinnojyukugo_08_0213"
    INDEX 01 04:18:11
  TRACK 214 AUDIO
    TITLE "TOEIC LR Kinnojyukugo_08_0214"
    INDEX 01 04:18:50
  TRACK 215 AUDIO
    TITLE "TOEIC LR Kinnojyukugo_08_0215"
    INDEX 01 04:20:26
  TRACK 216 AUDIO
    TITLE "TOEIC LR Kinnojyukugo_08_0216"
    INDEX 01 04:20:65
  TRACK 217 AUDIO
    TITLE "TOEIC LR Kinnojyukugo_08_0217"
    INDEX 01 04:22:25
  TRACK 218 AUDIO
    TITLE "TOEIC LR Kinnojyukugo_08_0218"
    INDEX 01 04:22:64
  TRACK 219 AUDIO
    TITLE "TOEIC LR Kinnojyukugo_08_0219"
    INDEX 01 04:24:27
  TRACK 220 AUDIO
    TITLE "TOEIC LR Kinnojyukugo_08_0220"
    INDEX 01 04:24:67
  TRACK 221 AUDIO
    TITLE "TOEIC LR Kinnojyukugo_08_0221"
    INDEX 01 04:26:36
  TRACK 222 AUDIO
    TITLE "TOEIC LR Kinnojyukugo_08_0222"
    INDEX 01 04:26:73
  TRACK 223 AUDIO
    TITLE "TOEIC LR Kinnojyukugo_08_0223"
    INDEX 01 04:28:47
  TRACK 224 AUDIO
    TITLE "TOEIC LR Kinnojyukugo_08_0224"
    INDEX 01 04:29:11
  TRACK 225 AUDIO
    TITLE "TOEIC LR Kinnojyukugo_08_0225"
    INDEX 01 04:30:57
  TRACK 226 AUDIO
    TITLE "TOEIC LR Kinnojyukugo_08_0226"
    INDEX 01 04:31:57
  TRACK 227 AUDIO
    TITLE "TOEIC LR Kinnojyukugo_08_0227"
    INDEX 01 04:32:72
  TRACK 228 AUDIO
    TITLE "TOEIC LR Kinnojyukugo_08_0228"
    INDEX 01 04:33:34
  TRACK 229 AUDIO
    TITLE "TOEIC LR Kinnojyukugo_08_0229"
    INDEX 01 04:34:65
  TRACK 230 AUDIO
    TITLE "TOEIC LR Kinnojyukugo_08_0230"
    INDEX 01 04:35:27
  TRACK 231 AUDIO
    TITLE "TOEIC LR Kinnojyukugo_08_0231"
    INDEX 01 04:37:12
  TRACK 232 AUDIO
    TITLE "TOEIC LR Kinnojyukugo_08_0232"
    INDEX 01 04:37:52
  TRACK 233 AUDIO
    TITLE "TOEIC LR Kinnojyukugo_08_0233"
    INDEX 01 04:39:23
  TRACK 234 AUDIO
    TITLE "TOEIC LR Kinnojyukugo_08_0234"
    INDEX 01 04:39:60
  TRACK 235 AUDIO
    TITLE "TOEIC LR Kinnojyukugo_08_0235"
    INDEX 01 04:41:47
  TRACK 236 AUDIO
    TITLE "TOEIC LR Kinnojyukugo_08_0236"
    INDEX 01 04:42:10
  TRACK 237 AUDIO
    TITLE "TOEIC LR Kinnojyukugo_08_0237"
    INDEX 01 04:43:54
  TRACK 238 AUDIO
    TITLE "TOEIC LR Kinnojyukugo_08_0238"
    INDEX 01 04:44:18
  TRACK 239 AUDIO
    TITLE "TOEIC LR Kinnojyukugo_08_0239"
    INDEX 01 04:46:04
  TRACK 240 AUDIO
    TITLE "TOEIC LR Kinnojyukugo_08_0240"
    INDEX 01 04:46:43
  TRACK 241 AUDIO
    TITLE "TOEIC LR Kinnojyukugo_08_0241"
    INDEX 01 04:48:53
  TRACK 242 AUDIO
    TITLE "TOEIC LR Kinnojyukugo_08_0242"
    INDEX 01 04:49:53
  TRACK 243 AUDIO
    TITLE "TOEIC LR Kinnojyukugo_08_0243"
    INDEX 01 04:50:68
  TRACK 244 AUDIO
    TITLE "TOEIC LR Kinnojyukugo_08_0244"
    INDEX 01 04:51:30
  TRACK 245 AUDIO
    TITLE "TOEIC LR Kinnojyukugo_08_0245"
    INDEX 01 04:54:09
  TRACK 246 AUDIO
    TITLE "TOEIC LR Kinnojyukugo_08_0246"
    INDEX 01 04:54:48
  TRACK 247 AUDIO
    TITLE "TOEIC LR Kinnojyukugo_08_0247"
    INDEX 01 04:56:31
  TRACK 248 AUDIO
    TITLE "TOEIC LR Kinnojyukugo_08_0248"
    INDEX 01 04:56:65
  TRACK 249 AUDIO
    TITLE "TOEIC LR Kinnojyukugo_08_0249"
    INDEX 01 04:58:30
  TRACK 250 AUDIO
    TITLE "TOEIC LR Kinnojyukugo_08_0250"
    INDEX 01 04:58:69
  TRACK 251 AUDIO
    TITLE "TOEIC LR Kinnojyukugo_08_0251"
    INDEX 01 05:00:59
  TRACK 252 AUDIO
    TITLE "TOEIC LR Kinnojyukugo_08_0252"
    INDEX 01 05:01:21
  TRACK 253 AUDIO
    TITLE "TOEIC LR Kinnojyukugo_08_0253"
    INDEX 01 05:02:65
  TRACK 254 AUDIO
    TITLE "TOEIC LR Kinnojyukugo_08_0254"
    INDEX 01 05:03:28
  TRACK 255 AUDIO
    TITLE "TOEIC LR Kinnojyukugo_08_0255"
    INDEX 01 05:05:36
  TRACK 256 AUDIO
    TITLE "TOEIC LR Kinnojyukugo_08_0256"
    INDEX 01 05:05:73
  TRACK 257 AUDIO
    TITLE "TOEIC LR Kinnojyukugo_08_0257"
    INDEX 01 05:08:13
  TRACK 258 AUDIO
    TITLE "TOEIC LR Kinnojyukugo_08_0258"
    INDEX 01 05:09:18
  TRACK 259 AUDIO
    TITLE "TOEIC LR Kinnojyukugo_08_0259"
    INDEX 01 05:10:26
  TRACK 260 AUDIO
    TITLE "TOEIC LR Kinnojyukugo_08_0260"
    INDEX 01 05:10:63
  TRACK 261 AUDIO
    TITLE "TOEIC LR Kinnojyukugo_08_0261"
    INDEX 01 05:15:19
  TRACK 262 AUDIO
    TITLE "TOEIC LR Kinnojyukugo_08_0262"
    INDEX 01 05:15:54
  TRACK 263 AUDIO
    TITLE "TOEIC LR Kinnojyukugo_08_0263"
    INDEX 01 05:17:37
  TRACK 264 AUDIO
    TITLE "TOEIC LR Kinnojyukugo_08_0264"
    INDEX 01 05:17:73
  TRACK 265 AUDIO
    TITLE "TOEIC LR Kinnojyukugo_08_0265"
    INDEX 01 05:19:34
  TRACK 266 AUDIO
    TITLE "TOEIC LR Kinnojyukugo_08_0266"
    INDEX 01 05:19:72
  TRACK 267 AUDIO
    TITLE "TOEIC LR Kinnojyukugo_08_0267"
    INDEX 01 05:21:70
  TRACK 268 AUDIO
    TITLE "TOEIC LR Kinnojyukugo_08_0268"
    INDEX 01 05:22:33
  TRACK 269 AUDIO
    TITLE "TOEIC LR Kinnojyukugo_08_0269"
    INDEX 01 05:23:73
  TRACK 270 AUDIO
    TITLE "TOEIC LR Kinnojyukugo_08_0270"
    INDEX 01 05:24:51
  TRACK 271 AUDIO
    TITLE "TOEIC LR Kinnojyukugo_08_0271"
    INDEX 01 05:26:40
  TRACK 272 AUDIO
    TITLE "TOEIC LR Kinnojyukugo_08_0272"
    INDEX 01 05:27:03
  TRACK 273 AUDIO
    TITLE "TOEIC LR Kinnojyukugo_08_0273"
    INDEX 01 05:28:51
  TRACK 274 AUDIO
    TITLE "TOEIC LR Kinnojyukugo_08_0274"
    INDEX 01 05:29:52
  TRACK 275 AUDIO
    TITLE "TOEIC LR Kinnojyukugo_08_0275"
    INDEX 01 05:30:62
  TRACK 276 AUDIO
    TITLE "TOEIC LR Kinnojyukugo_08_0276"
    INDEX 01 05:31:26
  TRACK 277 AUDIO
    TITLE "TOEIC LR Kinnojyukugo_08_0277"
    INDEX 01 05:36:27
  TRACK 278 AUDIO
    TITLE "TOEIC LR Kinnojyukugo_08_0278"
    INDEX 01 05:36:62
  TRACK 279 AUDIO
    TITLE "TOEIC LR Kinnojyukugo_08_0279"
    INDEX 01 05:38:40
  TRACK 280 AUDIO
    TITLE "TOEIC LR Kinnojyukugo_08_0280"
    INDEX 01 05:39:02
  TRACK 281 AUDIO
    TITLE "TOEIC LR Kinnojyukugo_08_0281"
    INDEX 01 05:40:46
  TRACK 282 AUDIO
    TITLE "TOEIC LR Kinnojyukugo_08_0282"
    INDEX 01 05:41:07
  TRACK 283 AUDIO
    TITLE "TOEIC LR Kinnojyukugo_08_0283"
    INDEX 01 05:43:13
  TRACK 284 AUDIO
    TITLE "TOEIC LR Kinnojyukugo_08_0284"
    INDEX 01 05:43:52
  TRACK 285 AUDIO
    TITLE "TOEIC LR Kinnojyukugo_08_0285"
    INDEX 01 05:45:28
  TRACK 286 AUDIO
    TITLE "TOEIC LR Kinnojyukugo_08_0286"
    INDEX 01 05:45:65
  TRACK 287 AUDIO
    TITLE "TOEIC LR Kinnojyukugo_08_0287"
    INDEX 01 05:47:62
  TRACK 288 AUDIO
    TITLE "TOEIC LR Kinnojyukugo_08_0288"
    INDEX 01 05:48:24
  TRACK 289 AUDIO
    TITLE "TOEIC LR Kinnojyukugo_08_0289"
    INDEX 01 05:49:67
  TRACK 290 AUDIO
    TITLE "TOEIC LR Kinnojyukugo_08_0290"
    INDEX 01 05:50:68
  TRACK 291 AUDIO
    TITLE "TOEIC LR Kinnojyukugo_08_0291"
    INDEX 01 05:51:68
  TRACK 292 AUDIO
    TITLE "TOEIC LR Kinnojyukugo_08_0292"
    INDEX 01 05:52:30
  TRACK 293 AUDIO
    TITLE "TOEIC LR Kinnojyukugo_08_0293"
    INDEX 01 05:56:63
  TRACK 294 AUDIO
    TITLE "TOEIC LR Kinnojyukugo_08_0294"
    INDEX 01 05:57:27
  TRACK 295 AUDIO
    TITLE "TOEIC LR Kinnojyukugo_08_0295"
    INDEX 01 05:59:12
  TRACK 296 AUDIO
    TITLE "TOEIC LR Kinnojyukugo_08_0296"
    INDEX 01 05:59:50
  TRACK 297 AUDIO
    TITLE "TOEIC LR Kinnojyukugo_08_0297"
    INDEX 01 06:01:17
  TRACK 298 AUDIO
    TITLE "TOEIC LR Kinnojyukugo_08_0298"
    INDEX 01 06:01:56
  TRACK 299 AUDIO
    TITLE "TOEIC LR Kinnojyukugo_08_0299"
    INDEX 01 06:03:43
  TRACK 300 AUDIO
    TITLE "TOEIC LR Kinnojyukugo_08_0300"
    INDEX 01 06:04:08
  TRACK 301 AUDIO
    TITLE "TOEIC LR Kinnojyukugo_08_0301"
    INDEX 01 06:05:40
  TRACK 302 AUDIO
    TITLE "TOEIC LR Kinnojyukugo_08_0302"
    INDEX 01 06:06:03
  TRACK 303 AUDIO
    TITLE "TOEIC LR Kinnojyukugo_08_0303"
    INDEX 01 06:07:55
  TRACK 304 AUDIO
    TITLE "TOEIC LR Kinnojyukugo_08_0304"
    INDEX 01 06:08:19
  TRACK 305 AUDIO
    TITLE "TOEIC LR Kinnojyukugo_08_0305"
    INDEX 01 06:09:70
  TRACK 306 AUDIO
    TITLE "TOEIC LR Kinnojyukugo_08_0306"
    INDEX 01 06:10:69
  TRACK 307 AUDIO
    TITLE "TOEIC LR Kinnojyukugo_08_0307"
    INDEX 01 06:11:72
  TRACK 308 AUDIO
    TITLE "TOEIC LR Kinnojyukugo_08_0308"
    INDEX 01 06:12:37
  TRACK 309 AUDIO
    TITLE "TOEIC LR Kinnojyukugo_08_0309"
    INDEX 01 06:19:35
  TRACK 310 AUDIO
    TITLE "TOEIC LR Kinnojyukugo_08_0310"
    INDEX 01 06:19:74
  TRACK 311 AUDIO
    TITLE "TOEIC LR Kinnojyukugo_08_0311"
    INDEX 01 06:22:11
  TRACK 312 AUDIO
    TITLE "TOEIC LR Kinnojyukugo_08_0312"
    INDEX 01 06:22:55
  TRACK 313 AUDIO
    TITLE "TOEIC LR Kinnojyukugo_08_0313"
    INDEX 01 06:24:44
  TRACK 314 AUDIO
    TITLE "TOEIC LR Kinnojyukugo_08_0314"
    INDEX 01 06:25:06
  TRACK 315 AUDIO
    TITLE "TOEIC LR Kinnojyukugo_08_0315"
    INDEX 01 06:27:46
  TRACK 316 AUDIO
    TITLE "TOEIC LR Kinnojyukugo_08_0316"
    INDEX 01 06:28:10
  TRACK 317 AUDIO
    TITLE "TOEIC LR Kinnojyukugo_08_0317"
    INDEX 01 06:30:32
  TRACK 318 AUDIO
    TITLE "TOEIC LR Kinnojyukugo_08_0318"
    INDEX 01 06:30:70
  TRACK 319 AUDIO
    TITLE "TOEIC LR Kinnojyukugo_08_0319"
    INDEX 01 06:32:39
  TRACK 320 AUDIO
    TITLE "TOEIC LR Kinnojyukugo_08_0320"
    INDEX 01 06:33:01
  TRACK 321 AUDIO
    TITLE "TOEIC LR Kinnojyukugo_08_0321"
    INDEX 01 06:34:52
  TRACK 322 AUDIO
    TITLE "TOEIC LR Kinnojyukugo_08_0322"
    INDEX 01 06:35:53
  TRACK 323 AUDIO
    TITLE "TOEIC LR Kinnojyukugo_08_0323"
    INDEX 01 06:36:53
  TRACK 324 AUDIO
    TITLE "TOEIC LR Kinnojyukugo_08_0324"
    INDEX 01 06:37:15
  TRACK 325 AUDIO
    TITLE "TOEIC LR Kinnojyukugo_08_0325"
    INDEX 01 06:42:30
  TRACK 326 AUDIO
    TITLE "TOEIC LR Kinnojyukugo_08_0326"
    INDEX 01 06:42:67
  TRACK 327 AUDIO
    TITLE "TOEIC LR Kinnojyukugo_08_0327"
    INDEX 01 06:44:29
  TRACK 328 AUDIO
    TITLE "TOEIC LR Kinnojyukugo_08_0328"
    INDEX 01 06:44:66
  TRACK 329 AUDIO
    TITLE "TOEIC LR Kinnojyukugo_08_0329"
    INDEX 01 06:46:06
  TRACK 330 AUDIO
    TITLE "TOEIC LR Kinnojyukugo_08_0330"
    INDEX 01 06:46:45
  TRACK 331 AUDIO
    TITLE "TOEIC LR Kinnojyukugo_08_0331"
    INDEX 01 06:47:72
  TRACK 332 AUDIO
    TITLE "TOEIC LR Kinnojyukugo_08_0332"
    INDEX 01 06:48:34
  TRACK 333 AUDIO
    TITLE "TOEIC LR Kinnojyukugo_08_0333"
    INDEX 01 06:50:08
  TRACK 334 AUDIO
    TITLE "TOEIC LR Kinnojyukugo_08_0334"
    INDEX 01 06:50:43
  TRACK 335 AUDIO
    TITLE "TOEIC LR Kinnojyukugo_08_0335"
    INDEX 01 06:51:68
  TRACK 336 AUDIO
    TITLE "TOEIC LR Kinnojyukugo_08_0336"
    INDEX 01 06:52:30
  TRACK 337 AUDIO
    TITLE "TOEIC LR Kinnojyukugo_08_0337"
    INDEX 01 06:53:71
  TRACK 338 AUDIO
    TITLE "TOEIC LR Kinnojyukugo_08_0338"
    INDEX 01 06:55:01
  TRACK 339 AUDIO
    TITLE "TOEIC LR Kinnojyukugo_08_0339"
    INDEX 01 06:56:22
  TRACK 340 AUDIO
    TITLE "TOEIC LR Kinnojyukugo_08_0340"
    INDEX 01 06:56:63
  TRACK 341 AUDIO
    TITLE "TOEIC LR Kinnojyukugo_08_0341"
    INDEX 01 06:58:09
  TRACK 342 AUDIO
    TITLE "TOEIC LR Kinnojyukugo_08_0342"
    INDEX 01 06:58:52
  TRACK 343 AUDIO
    TITLE "TOEIC LR Kinnojyukugo_08_0343"
    INDEX 01 07:00:20
  TRACK 344 AUDIO
    TITLE "TOEIC LR Kinnojyukugo_08_0344"
    INDEX 01 07:00:57
  TRACK 345 AUDIO
    TITLE "TOEIC LR Kinnojyukugo_08_0345"
    INDEX 01 07:02:36
  TRACK 346 AUDIO
    TITLE "TOEIC LR Kinnojyukugo_08_0346"
    INDEX 01 07:03:01
  TRACK 347 AUDIO
    TITLE "TOEIC LR Kinnojyukugo_08_0347"
    INDEX 01 07:04:57
  TRACK 348 AUDIO
    TITLE "TOEIC LR Kinnojyukugo_08_0348"
    INDEX 01 07:05:21
  TRACK 349 AUDIO
    TITLE "TOEIC LR Kinnojyukugo_08_0349"
    INDEX 01 07:06:64
  TRACK 350 AUDIO
    TITLE "TOEIC LR Kinnojyukugo_08_0350"
    INDEX 01 07:07:28
  TRACK 351 AUDIO
    TITLE "TOEIC LR Kinnojyukugo_08_0351"
    INDEX 01 07:08:70
  TRACK 352 AUDIO
    TITLE "TOEIC LR Kinnojyukugo_08_0352"
    INDEX 01 07:09:33
  TRACK 353 AUDIO
    TITLE "TOEIC LR Kinnojyukugo_08_0353"
    INDEX 01 07:11:14
  TRACK 354 AUDIO
    TITLE "TOEIC LR Kinnojyukugo_08_0354"
    INDEX 01 07:12:15
  TRACK 355 AUDIO
    TITLE "TOEIC LR Kinnojyukugo_08_0355"
    INDEX 01 07:13:19
  TRACK 356 AUDIO
    TITLE "TOEIC LR Kinnojyukugo_08_0356"
    INDEX 01 07:13:56
  TRACK 357 AUDIO
    TITLE "TOEIC LR Kinnojyukugo_08_0357"
    INDEX 01 07:15:10
  TRACK 358 AUDIO
    TITLE "TOEIC LR Kinnojyukugo_08_0358"
    INDEX 01 07:15:49
  TRACK 359 AUDIO
    TITLE "TOEIC LR Kinnojyukugo_08_0359"
    INDEX 01 07:17:30
  TRACK 360 AUDIO
    TITLE "TOEIC LR Kinnojyukugo_08_0360"
    INDEX 01 07:17:67
  TRACK 361 AUDIO
    TITLE "TOEIC LR Kinnojyukugo_08_0361"
    INDEX 01 07:19:21
  TRACK 362 AUDIO
    TITLE "TOEIC LR Kinnojyukugo_08_0362"
    INDEX 01 07:19:58
  TRACK 363 AUDIO
    TITLE "TOEIC LR Kinnojyukugo_08_0363"
    INDEX 01 07:21:38
  TRACK 364 AUDIO
    TITLE "TOEIC LR Kinnojyukugo_08_0364"
    INDEX 01 07:22:00
  TRACK 365 AUDIO
    TITLE "TOEIC LR Kinnojyukugo_08_0365"
    INDEX 01 07:23:31
  TRACK 366 AUDIO
    TITLE "TOEIC LR Kinnojyukugo_08_0366"
    INDEX 01 07:23:66
  TRACK 367 AUDIO
    TITLE "TOEIC LR Kinnojyukugo_08_0367"
    INDEX 01 07:25:57
  TRACK 368 AUDIO
    TITLE "TOEIC LR Kinnojyukugo_08_0368"
    INDEX 01 07:26:21
  TRACK 369 AUDIO
    TITLE "TOEIC LR Kinnojyukugo_08_0369"
    INDEX 01 07:28:01
  TRACK 370 AUDIO
    TITLE "TOEIC LR Kinnojyukugo_08_0370"
    INDEX 01 07:29:00
  TRACK 371 AUDIO
    TITLE "TOEIC LR Kinnojyukugo_08_0371"
    INDEX 01 07:30:15
  TRACK 372 AUDIO
    TITLE "TOEIC LR Kinnojyukugo_08_0372"
    INDEX 01 07:30:52
  TRACK 373 AUDIO
    TITLE "TOEIC LR Kinnojyukugo_08_0373"
    INDEX 01 07:35:44
  TRACK 374 AUDIO
    TITLE "TOEIC LR Kinnojyukugo_08_0374"
    INDEX 01 07:36:08
  TRACK 375 AUDIO
    TITLE "TOEIC LR Kinnojyukugo_08_0375"
    INDEX 01 07:38:28
  TRACK 376 AUDIO
    TITLE "TOEIC LR Kinnojyukugo_08_0376"
    INDEX 01 07:38:66
  TRACK 377 AUDIO
    TITLE "TOEIC LR Kinnojyukugo_08_0377"
    INDEX 01 07:40:70
  TRACK 378 AUDIO
    TITLE "TOEIC LR Kinnojyukugo_08_0378"
    INDEX 01 07:41:34
  TRACK 379 AUDIO
    TITLE "TOEIC LR Kinnojyukugo_08_0379"
    INDEX 01 07:43:57
  TRACK 380 AUDIO
    TITLE "TOEIC LR Kinnojyukugo_08_0380"
    INDEX 01 07:44:21
  TRACK 381 AUDIO
    TITLE "TOEIC LR Kinnojyukugo_08_0381"
    INDEX 01 07:46:32
  TRACK 382 AUDIO
    TITLE "TOEIC LR Kinnojyukugo_08_0382"
    INDEX 01 07:46:71
  TRACK 383 AUDIO
    TITLE "TOEIC LR Kinnojyukugo_08_0383"
    INDEX 01 07:48:60
  TRACK 384 AUDIO
    TITLE "TOEIC LR Kinnojyukugo_08_0384"
    INDEX 01 07:49:24
  TRACK 385 AUDIO
    TITLE "TOEIC LR Kinnojyukugo_08_0385"
    INDEX 01 07:51:04
  TRACK 386 AUDIO
    TITLE "TOEIC LR Kinnojyukugo_08_0386"
    INDEX 01 07:52:03
  TRACK 387 AUDIO
    TITLE "TOEIC LR Kinnojyukugo_08_0387"
    INDEX 01 07:53:20
  TRACK 388 AUDIO
    TITLE "TOEIC LR Kinnojyukugo_08_0388"
    INDEX 01 07:53:57
  TRACK 389 AUDIO
    TITLE "TOEIC LR Kinnojyukugo_08_0389"
    INDEX 01 07:55:03
  TRACK 390 AUDIO
    TITLE "TOEIC LR Kinnojyukugo_08_0390"
    INDEX 01 07:55:40
  TRACK 391 AUDIO
    TITLE "TOEIC LR Kinnojyukugo_08_0391"
    INDEX 01 07:58:41
  TRACK 392 AUDIO
    TITLE "TOEIC LR Kinnojyukugo_08_0392"
    INDEX 01 07:59:01
  TRACK 393 AUDIO
    TITLE "TOEIC LR Kinnojyukugo_08_0393"
    INDEX 01 08:02:03
  TRACK 394 AUDIO
    TITLE "TOEIC LR Kinnojyukugo_08_0394"
    INDEX 01 08:02:41
  TRACK 395 AUDIO
    TITLE "TOEIC LR Kinnojyukugo_08_0395"
    INDEX 01 08:05:13
  TRACK 396 AUDIO
    TITLE "TOEIC LR Kinnojyukugo_08_0396"
    INDEX 01 08:05:51
  TRACK 397 AUDIO
    TITLE "TOEIC LR Kinnojyukugo_08_0397"
    INDEX 01 08:08:24
  TRACK 398 AUDIO
    TITLE "TOEIC LR Kinnojyukugo_08_0398"
    INDEX 01 08:08:69
  TRACK 399 AUDIO
    TITLE "TOEIC LR Kinnojyukugo_08_0399"
    INDEX 01 08:12:06
  TRACK 400 AUDIO
    TITLE "TOEIC LR Kinnojyukugo_08_0400"
    INDEX 01 08:12:45
  TRACK 401 AUDIO
    TITLE "TOEIC LR Kinnojyukugo_08_0401"
    INDEX 01 08:15:39
  TRACK 402 AUDIO
    TITLE "TOEIC LR Kinnojyukugo_08_0402"
    INDEX 01 08:16:41
  TRACK 403 AUDIO
    TITLE "TOEIC LR Kinnojyukugo_08_0403"
    INDEX 01 08:17:52
  TRACK 404 AUDIO
    TITLE "TOEIC LR Kinnojyukugo_08_0404"
    INDEX 01 08:18:14
  TRACK 405 AUDIO
    TITLE "TOEIC LR Kinnojyukugo_08_0405"
    INDEX 01 08:22:31
  TRACK 406 AUDIO
    TITLE "TOEIC LR Kinnojyukugo_08_0406"
    INDEX 01 08:22:71
  TRACK 407 AUDIO
    TITLE "TOEIC LR Kinnojyukugo_08_0407"
    INDEX 01 08:24:42
  TRACK 408 AUDIO
    TITLE "TOEIC LR Kinnojyukugo_08_0408"
    INDEX 01 08:25:04
  TRACK 409 AUDIO
    TITLE "TOEIC LR Kinnojyukugo_08_0409"
    INDEX 01 08:26:35
  TRACK 410 AUDIO
    TITLE "TOEIC LR Kinnojyukugo_08_0410"
    INDEX 01 08:26:72
  TRACK 411 AUDIO
    TITLE "TOEIC LR Kinnojyukugo_08_0411"
    INDEX 01 08:28:69
  TRACK 412 AUDIO
    TITLE "TOEIC LR Kinnojyukugo_08_0412"
    INDEX 01 08:29:39
  TRACK 413 AUDIO
    TITLE "TOEIC LR Kinnojyukugo_08_0413"
    INDEX 01 08:31:44
  TRACK 414 AUDIO
    TITLE "TOEIC LR Kinnojyukugo_08_0414"
    INDEX 01 08:32:06
  TRACK 415 AUDIO
    TITLE "TOEIC LR Kinnojyukugo_08_0415"
    INDEX 01 08:33:72
  TRACK 416 AUDIO
    TITLE "TOEIC LR Kinnojyukugo_08_0416"
    INDEX 01 08:34:44
  TRACK 417 AUDIO
    TITLE "TOEIC LR Kinnojyukugo_08_0417"
    INDEX 01 08:36:28
  TRACK 418 AUDIO
    TITLE "TOEIC LR Kinnojyukugo_08_0418"
    INDEX 01 08:37:27
  TRACK 419 AUDIO
    TITLE "TOEIC LR Kinnojyukugo_08_0419"
    INDEX 01 08:38:36
  TRACK 420 AUDIO
    TITLE "TOEIC LR Kinnojyukugo_08_0420"
    INDEX 01 08:39:01
  TRACK 421 AUDIO
    TITLE "TOEIC LR Kinnojyukugo_08_0421"
    INDEX 01 08:44:53
  TRACK 422 AUDIO
    TITLE "TOEIC LR Kinnojyukugo_08_0422"
    INDEX 01 08:45:15
  TRACK 423 AUDIO
    TITLE "TOEIC LR Kinnojyukugo_08_0423"
    INDEX 01 08:46:73
  TRACK 424 AUDIO
    TITLE "TOEIC LR Kinnojyukugo_08_0424"
    INDEX 01 08:47:35
  TRACK 425 AUDIO
    TITLE "TOEIC LR Kinnojyukugo_08_0425"
    INDEX 01 08:48:68
  TRACK 426 AUDIO
    TITLE "TOEIC LR Kinnojyukugo_08_0426"
    INDEX 01 08:49:30
  TRACK 427 AUDIO
    TITLE "TOEIC LR Kinnojyukugo_08_0427"
    INDEX 01 08:51:16
  TRACK 428 AUDIO
    TITLE "TOEIC LR Kinnojyukugo_08_0428"
    INDEX 01 08:51:53
  TRACK 429 AUDIO
    TITLE "TOEIC LR Kinnojyukugo_08_0429"
    INDEX 01 08:53:42
  TRACK 430 AUDIO
    TITLE "TOEIC LR Kinnojyukugo_08_0430"
    INDEX 01 08:54:02
  TRACK 431 AUDIO
    TITLE "TOEIC LR Kinnojyukugo_08_0431"
    INDEX 01 08:55:70
  TRACK 432 AUDIO
    TITLE "TOEIC LR Kinnojyukugo_08_0432"
    INDEX 01 08:56:32
  TRACK 433 AUDIO
    TITLE "TOEIC LR Kinnojyukugo_08_0433"
    INDEX 01 08:58:02
  TRACK 434 AUDIO
    TITLE "TOEIC LR Kinnojyukugo_08_0434"
    INDEX 01 08:59:03
  TRACK 435 AUDIO
    TITLE "TOEIC LR Kinnojyukugo_08_0435"
    INDEX 01 09:00:18
  TRACK 436 AUDIO
    TITLE "TOEIC LR Kinnojyukugo_08_0436"
    INDEX 01 09:00:54
  TRACK 437 AUDIO
    TITLE "TOEIC LR Kinnojyukugo_08_0437"
    INDEX 01 09:01:73
  TRACK 438 AUDIO
    TITLE "TOEIC LR Kinnojyukugo_08_0438"
    INDEX 01 09:02:39
  TRACK 439 AUDIO
    TITLE "TOEIC LR Kinnojyukugo_08_0439"
    INDEX 01 09:04:14
  TRACK 440 AUDIO
    TITLE "TOEIC LR Kinnojyukugo_08_0440"
    INDEX 01 09:04:53
  TRACK 441 AUDIO
    TITLE "TOEIC LR Kinnojyukugo_08_0441"
    INDEX 01 09:06:29
  TRACK 442 AUDIO
    TITLE "TOEIC LR Kinnojyukugo_08_0442"
    INDEX 01 09:07:07
  TRACK 443 AUDIO
    TITLE "TOEIC LR Kinnojyukugo_08_0443"
    INDEX 01 09:08:59
  TRACK 444 AUDIO
    TITLE "TOEIC LR Kinnojyukugo_08_0444"
    INDEX 01 09:09:23
  TRACK 445 AUDIO
    TITLE "TOEIC LR Kinnojyukugo_08_0445"
    INDEX 01 09:10:58
  TRACK 446 AUDIO
    TITLE "TOEIC LR Kinnojyukugo_08_0446"
    INDEX 01 09:11:22
  TRACK 447 AUDIO
    TITLE "TOEIC LR Kinnojyukugo_08_0447"
    INDEX 01 09:12:73
  TRACK 448 AUDIO
    TITLE "TOEIC LR Kinnojyukugo_08_0448"
    INDEX 01 09:13:35
  TRACK 449 AUDIO
    TITLE "TOEIC LR Kinnojyukugo_08_0449"
    INDEX 01 09:15:14
  TRACK 450 AUDIO
    TITLE "TOEIC LR Kinnojyukugo_08_0450"
    INDEX 01 09:16:17
  TRACK 451 AUDIO
    TITLE "TOEIC LR Kinnojyukugo_08_0451"
    INDEX 01 09:17:27
  TRACK 452 AUDIO
    TITLE "TOEIC LR Kinnojyukugo_08_0452"
    INDEX 01 09:18:03
  TRACK 453 AUDIO
    TITLE "TOEIC LR Kinnojyukugo_08_0453"
    INDEX 01 09:21:11
  TRACK 454 AUDIO
    TITLE "TOEIC LR Kinnojyukugo_08_0454"
    INDEX 01 09:21:54
  TRACK 455 AUDIO
    TITLE "TOEIC LR Kinnojyukugo_08_0455"
    INDEX 01 09:23:49
  TRACK 456 AUDIO
    TITLE "TOEIC LR Kinnojyukugo_08_0456"
    INDEX 01 09:24:11
  TRACK 457 AUDIO
    TITLE "TOEIC LR Kinnojyukugo_08_0457"
    INDEX 01 09:25:69
  TRACK 458 AUDIO
    TITLE "TOEIC LR Kinnojyukugo_08_0458"
    INDEX 01 09:26:31
  TRACK 459 AUDIO
    TITLE "TOEIC LR Kinnojyukugo_08_0459"
    INDEX 01 09:28:26
  TRACK 460 AUDIO
    TITLE "TOEIC LR Kinnojyukugo_08_0460"
    INDEX 01 09:28:66
  TRACK 461 AUDIO
    TITLE "TOEIC LR Kinnojyukugo_08_0461"
    INDEX 01 09:30:37
  TRACK 462 AUDIO
    TITLE "TOEIC LR Kinnojyukugo_08_0462"
    INDEX 01 09:31:03
  TRACK 463 AUDIO
    TITLE "TOEIC LR Kinnojyukugo_08_0463"
    INDEX 01 09:32:71
  TRACK 464 AUDIO
    TITLE "TOEIC LR Kinnojyukugo_08_0464"
    INDEX 01 09:33:34
  TRACK 465 AUDIO
    TITLE "TOEIC LR Kinnojyukugo_08_0465"
    INDEX 01 09:34:70
  TRACK 466 AUDIO
    TITLE "TOEIC LR Kinnojyukugo_08_0466"
    INDEX 01 09:36:10
  TRACK 467 AUDIO
    TITLE "TOEIC LR Kinnojyukugo_08_0467"
    INDEX 01 09:37:16
  TRACK 468 AUDIO
    TITLE "TOEIC LR Kinnojyukugo_08_0468"
    INDEX 01 09:37:53
  TRACK 469 AUDIO
    TITLE "TOEIC LR Kinnojyukugo_08_0469"
    INDEX 01 09:44:25
  TRACK 470 AUDIO
    TITLE "TOEIC LR Kinnojyukugo_08_0470"
    INDEX 01 09:44:63
  TRACK 471 AUDIO
    TITLE "TOEIC LR Kinnojyukugo_08_0471"
    INDEX 01 09:46:42
  TRACK 472 AUDIO
    TITLE "TOEIC LR Kinnojyukugo_08_0472"
    INDEX 01 09:47:02
  TRACK 473 AUDIO
    TITLE "TOEIC LR Kinnojyukugo_08_0473"
    INDEX 01 09:48:29
  TRACK 474 AUDIO
    TITLE "TOEIC LR Kinnojyukugo_08_0474"
    INDEX 01 09:48:70
  TRACK 475 AUDIO
    TITLE "TOEIC LR Kinnojyukugo_08_0475"
    INDEX 01 09:50:54
  TRACK 476 AUDIO
    TITLE "TOEIC LR Kinnojyukugo_08_0476"
    INDEX 01 09:51:16
  TRACK 477 AUDIO
    TITLE "TOEIC LR Kinnojyukugo_08_0477"
    INDEX 01 09:52:58
  TRACK 478 AUDIO
    TITLE "TOEIC LR Kinnojyukugo_08_0478"
    INDEX 01 09:53:21
  TRACK 479 AUDIO
    TITLE "TOEIC LR Kinnojyukugo_08_0479"
    INDEX 01 09:55:10
  TRACK 480 AUDIO
    TITLE "TOEIC LR Kinnojyukugo_08_0480"
    INDEX 01 09:55:47
  TRACK 481 AUDIO
    TITLE "TOEIC LR Kinnojyukugo_08_0481"
    INDEX 01 09:57:09
  TRACK 482 AUDIO
    TITLE "TOEIC LR Kinnojyukugo_08_0482"
    INDEX 01 09:58:12
  TRACK 483 AUDIO
    TITLE "TOEIC LR Kinnojyukugo_08_0483"
    INDEX 01 09:59:19
  TRACK 484 AUDIO
    TITLE "TOEIC LR Kinnojyukugo_08_0484"
    INDEX 01 09:59:58
  TRACK 485 AUDIO
    TITLE "TOEIC LR Kinnojyukugo_08_0485"
    INDEX 01 10:03:48
  TRACK 486 AUDIO
    TITLE "TOEIC LR Kinnojyukugo_08_0486"
    INDEX 01 10:04:11
  TRACK 487 AUDIO
    TITLE "TOEIC LR Kinnojyukugo_08_0487"
    INDEX 01 10:05:53
  TRACK 488 AUDIO
    TITLE "TOEIC LR Kinnojyukugo_08_0488"
    INDEX 01 10:06:17
  TRACK 489 AUDIO
    TITLE "TOEIC LR Kinnojyukugo_08_0489"
    INDEX 01 10:07:40
  TRACK 490 AUDIO
    TITLE "TOEIC LR Kinnojyukugo_08_0490"
    INDEX 01 10:08:02
  TRACK 491 AUDIO
    TITLE "TOEIC LR Kinnojyukugo_08_0491"
    INDEX 01 10:09:41
  TRACK 492 AUDIO
    TITLE "TOEIC LR Kinnojyukugo_08_0492"
    INDEX 01 10:10:05
  TRACK 493 AUDIO
    TITLE "TOEIC LR Kinnojyukugo_08_0493"
    INDEX 01 10:11:48
  TRACK 494 AUDIO
    TITLE "TOEIC LR Kinnojyukugo_08_0494"
    INDEX 01 10:12:18
  TRACK 495 AUDIO
    TITLE "TOEIC LR Kinnojyukugo_08_0495"
    INDEX 01 10:13:62
  TRACK 496 AUDIO
    TITLE "TOEIC LR Kinnojyukugo_08_0496"
    INDEX 01 10:14:25
  TRACK 497 AUDIO
    TITLE "TOEIC LR Kinnojyukugo_08_0497"
    INDEX 01 10:15:63
  TRACK 498 AUDIO
    TITLE "TOEIC LR Kinnojyukugo_08_0498"
    INDEX 01 10:16:65
  TRACK 499 AUDIO
    TITLE "TOEIC LR Kinnojyukugo_08_0499"
    INDEX 01 10:17:72
  TRACK 500 AUDIO
    TITLE "TOEIC LR Kinnojyukugo_08_0500"
    INDEX 01 10:18:42
  TRACK 501 AUDIO
    TITLE "TOEIC LR Kinnojyukugo_08_0501"
    INDEX 01 10:21:33
  TRACK 502 AUDIO
    TITLE "TOEIC LR Kinnojyukugo_08_0502"
    INDEX 01 10:21:70
  TRACK 503 AUDIO
    TITLE "TOEIC LR Kinnojyukugo_08_0503"
    INDEX 01 10:23:33
  TRACK 504 AUDIO
    TITLE "TOEIC LR Kinnojyukugo_08_0504"
    INDEX 01 10:23:71
  TRACK 505 AUDIO
    TITLE "TOEIC LR Kinnojyukugo_08_0505"
    INDEX 01 10:25:34
  TRACK 506 AUDIO
    TITLE "TOEIC LR Kinnojyukugo_08_0506"
    INDEX 01 10:25:73
  TRACK 507 AUDIO
    TITLE "TOEIC LR Kinnojyukugo_08_0507"
    INDEX 01 10:27:45
  TRACK 508 AUDIO
    TITLE "TOEIC LR Kinnojyukugo_08_0508"
    INDEX 01 10:28:07
  TRACK 509 AUDIO
    TITLE "TOEIC LR Kinnojyukugo_08_0509"
    INDEX 01 10:29:54
  TRACK 510 AUDIO
    TITLE "TOEIC LR Kinnojyukugo_08_0510"
    INDEX 01 10:30:18
  TRACK 511 AUDIO
    TITLE "TOEIC LR Kinnojyukugo_08_0511"
    INDEX 01 10:32:01
  TRACK 512 AUDIO
    TITLE "TOEIC LR Kinnojyukugo_08_0512"
    INDEX 01 10:32:38
  TRACK 513 AUDIO
    TITLE "TOEIC LR Kinnojyukugo_08_0513"
    INDEX 01 10:34:04
  TRACK 514 AUDIO
    TITLE "TOEIC LR Kinnojyukugo_08_0514"
    INDEX 01 10:35:05
  TRACK 515 AUDIO
    TITLE "TOEIC LR Kinnojyukugo_08_0515"
    INDEX 01 10:36:12
  TRACK 516 AUDIO
    TITLE "TOEIC LR Kinnojyukugo_08_0516"
    INDEX 01 10:36:58
  TRACK 517 AUDIO
    TITLE "TOEIC LR Kinnojyukugo_08_0517"
    INDEX 01 10:39:62
  TRACK 518 AUDIO
    TITLE "TOEIC LR Kinnojyukugo_08_0518"
    INDEX 01 10:40:26
  TRACK 519 AUDIO
    TITLE "TOEIC LR Kinnojyukugo_08_0519"
    INDEX 01 10:42:13
  TRACK 520 AUDIO
    TITLE "TOEIC LR Kinnojyukugo_08_0520"
    INDEX 01 10:42:50
  TRACK 521 AUDIO
    TITLE "TOEIC LR Kinnojyukugo_08_0521"
    INDEX 01 10:44:18
  TRACK 522 AUDIO
    TITLE "TOEIC LR Kinnojyukugo_08_0522"
    INDEX 01 10:44:55
  TRACK 523 AUDIO
    TITLE "TOEIC LR Kinnojyukugo_08_0523"
    INDEX 01 10:46:54
  TRACK 524 AUDIO
    TITLE "TOEIC LR Kinnojyukugo_08_0524"
    INDEX 01 10:47:18
  TRACK 525 AUDIO
    TITLE "TOEIC LR Kinnojyukugo_08_0525"
    INDEX 01 10:48:67
  TRACK 526 AUDIO
    TITLE "TOEIC LR Kinnojyukugo_08_0526"
    INDEX 01 10:49:31
  TRACK 527 AUDIO
    TITLE "TOEIC LR Kinnojyukugo_08_0527"
    INDEX 01 10:51:22
  TRACK 528 AUDIO
    TITLE "TOEIC LR Kinnojyukugo_08_0528"
    INDEX 01 10:51:59
  TRACK 529 AUDIO
    TITLE "TOEIC LR Kinnojyukugo_08_0529"
    INDEX 01 10:53:42
  TRACK 530 AUDIO
    TITLE "TOEIC LR Kinnojyukugo_08_0530"
    INDEX 01 10:54:42
  TRACK 531 AUDIO
    TITLE "TOEIC LR Kinnojyukugo_08_0531"
    INDEX 01 10:55:51
  TRACK 532 AUDIO
    TITLE "TOEIC LR Kinnojyukugo_08_0532"
    INDEX 01 10:56:13
  TRACK 533 AUDIO
    TITLE "TOEIC LR Kinnojyukugo_08_0533"
    INDEX 01 11:00:31
  TRACK 534 AUDIO
    TITLE "TOEIC LR Kinnojyukugo_08_0534"
    INDEX 01 11:00:70
  TRACK 535 AUDIO
    TITLE "TOEIC LR Kinnojyukugo_08_0535"
    INDEX 01 11:03:29
  TRACK 536 AUDIO
    TITLE "TOEIC LR Kinnojyukugo_08_0536"
    INDEX 01 11:03:64
  TRACK 537 AUDIO
    TITLE "TOEIC LR Kinnojyukugo_08_0537"
    INDEX 01 11:05:49
  TRACK 538 AUDIO
    TITLE "TOEIC LR Kinnojyukugo_08_0538"
    INDEX 01 11:06:12
  TRACK 539 AUDIO
    TITLE "TOEIC LR Kinnojyukugo_08_0539"
    INDEX 01 11:08:20
  TRACK 540 AUDIO
    TITLE "TOEIC LR Kinnojyukugo_08_0540"
    INDEX 01 11:08:58
  TRACK 541 AUDIO
    TITLE "TOEIC LR Kinnojyukugo_08_0541"
    INDEX 01 11:10:51
  TRACK 542 AUDIO
    TITLE "TOEIC LR Kinnojyukugo_08_0542"
    INDEX 01 11:11:13
  TRACK 543 AUDIO
    TITLE "TOEIC LR Kinnojyukugo_08_0543"
    INDEX 01 11:13:33
  TRACK 544 AUDIO
    TITLE "TOEIC LR Kinnojyukugo_08_0544"
    INDEX 01 11:13:72
  TRACK 545 AUDIO
    TITLE "TOEIC LR Kinnojyukugo_08_0545"
    INDEX 01 11:15:60
  TRACK 546 AUDIO
    TITLE "TOEIC LR Kinnojyukugo_08_0546"
    INDEX 01 11:16:61
  TRACK 547 AUDIO
    TITLE "TOEIC LR Kinnojyukugo_08_0547"
    INDEX 01 11:17:68
  TRACK 548 AUDIO
    TITLE "TOEIC LR Kinnojyukugo_08_0548"
    INDEX 01 11:18:32
  TRACK 549 AUDIO
    TITLE "TOEIC LR Kinnojyukugo_08_0549"
    INDEX 01 11:22:26
  TRACK 550 AUDIO
    TITLE "TOEIC LR Kinnojyukugo_08_0550"
    INDEX 01 11:22:62
  TRACK 551 AUDIO
    TITLE "TOEIC LR Kinnojyukugo_08_0551"
    INDEX 01 11:24:62
  TRACK 552 AUDIO
    TITLE "TOEIC LR Kinnojyukugo_08_0552"
    INDEX 01 11:25:25
  TRACK 553 AUDIO
    TITLE "TOEIC LR Kinnojyukugo_08_0553"
    INDEX 01 11:26:65
  TRACK 554 AUDIO
    TITLE "TOEIC LR Kinnojyukugo_08_0554"
    INDEX 01 11:27:28
  TRACK 555 AUDIO
    TITLE "TOEIC LR Kinnojyukugo_08_0555"
    INDEX 01 11:29:28
  TRACK 556 AUDIO
    TITLE "TOEIC LR Kinnojyukugo_08_0556"
    INDEX 01 11:29:68
  TRACK 557 AUDIO
    TITLE "TOEIC LR Kinnojyukugo_08_0557"
    INDEX 01 11:31:31
  TRACK 558 AUDIO
    TITLE "TOEIC LR Kinnojyukugo_08_0558"
    INDEX 01 11:31:70
  TRACK 559 AUDIO
    TITLE "TOEIC LR Kinnojyukugo_08_0559"
    INDEX 01 11:33:48
  TRACK 560 AUDIO
    TITLE "TOEIC LR Kinnojyukugo_08_0560"
    INDEX 01 11:34:10
  TRACK 561 AUDIO
    TITLE "TOEIC LR Kinnojyukugo_08_0561"
    INDEX 01 11:35:52
  TRACK 562 AUDIO
    TITLE "TOEIC LR Kinnojyukugo_08_0562"
    INDEX 01 11:36:52
  TRACK 563 AUDIO
    TITLE "TOEIC LR Kinnojyukugo_08_0563"
    INDEX 01 11:37:73
  TRACK 564 AUDIO
    TITLE "TOEIC LR Kinnojyukugo_08_0564"
    INDEX 01 11:38:33
  TRACK 565 AUDIO
    TITLE "TOEIC LR Kinnojyukugo_08_0565"
    INDEX 01 11:39:68
  TRACK 566 AUDIO
    TITLE "TOEIC LR Kinnojyukugo_08_0566"
    INDEX 01 11:40:30
  TRACK 567 AUDIO
    TITLE "TOEIC LR Kinnojyukugo_08_0567"
    INDEX 01 11:42:17
  TRACK 568 AUDIO
    TITLE "TOEIC LR Kinnojyukugo_08_0568"
    INDEX 01 11:42:56
  TRACK 569 AUDIO
    TITLE "TOEIC LR Kinnojyukugo_08_0569"
    INDEX 01 11:44:46
  TRACK 570 AUDIO
    TITLE "TOEIC LR Kinnojyukugo_08_0570"
    INDEX 01 11:45:08
  TRACK 571 AUDIO
    TITLE "TOEIC LR Kinnojyukugo_08_0571"
    INDEX 01 11:46:56
  TRACK 572 AUDIO
    TITLE "TOEIC LR Kinnojyukugo_08_0572"
    INDEX 01 11:47:20
  TRACK 573 AUDIO
    TITLE "TOEIC LR Kinnojyukugo_08_0573"
    INDEX 01 11:48:67
  TRACK 574 AUDIO
    TITLE "TOEIC LR Kinnojyukugo_08_0574"
    INDEX 01 11:49:33
  TRACK 575 AUDIO
    TITLE "TOEIC LR Kinnojyukugo_08_0575"
    INDEX 01 11:51:34
  TRACK 576 AUDIO
    TITLE "TOEIC LR Kinnojyukugo_08_0576"
    INDEX 01 11:52:00
  TRACK 577 AUDIO
    TITLE "TOEIC LR Kinnojyukugo_08_0577"
    INDEX 01 11:53:37
  TRACK 578 AUDIO
    TITLE "TOEIC LR Kinnojyukugo_08_0578"
    INDEX 01 11:54:38
  TRACK 579 AUDIO
    TITLE "TOEIC LR Kinnojyukugo_08_0579"
    INDEX 01 11:55:57
  TRACK 580 AUDIO
    TITLE "TOEIC LR Kinnojyukugo_08_0580"
    INDEX 01 11:56:19
  TRACK 581 AUDIO
    TITLE "TOEIC LR Kinnojyukugo_08_0581"
    INDEX 01 11:57:48
  TRACK 582 AUDIO
    TITLE "TOEIC LR Kinnojyukugo_08_0582"
    INDEX 01 11:58:12
  TRACK 583 AUDIO
    TITLE "TOEIC LR Kinnojyukugo_08_0583"
    INDEX 01 11:59:73
  TRACK 584 AUDIO
    TITLE "TOEIC LR Kinnojyukugo_08_0584"
    INDEX 01 12:00:35
  TRACK 585 AUDIO
    TITLE "TOEIC LR Kinnojyukugo_08_0585"
    INDEX 01 12:02:20
  TRACK 586 AUDIO
    TITLE "TOEIC LR Kinnojyukugo_08_0586"
    INDEX 01 12:02:57
  TRACK 587 AUDIO
    TITLE "TOEIC LR Kinnojyukugo_08_0587"
    INDEX 01 12:04:46
  TRACK 588 AUDIO
    TITLE "TOEIC LR Kinnojyukugo_08_0588"
    INDEX 01 12:05:10
  TRACK 589 AUDIO
    TITLE "TOEIC LR Kinnojyukugo_08_0589"
    INDEX 01 12:06:59
  TRACK 590 AUDIO
    TITLE "TOEIC LR Kinnojyukugo_08_0590"
    INDEX 01 12:07:19
  TRACK 591 AUDIO
    TITLE "TOEIC LR Kinnojyukugo_08_0591"
    INDEX 01 12:08:68
  TRACK 592 AUDIO
    TITLE "TOEIC LR Kinnojyukugo_08_0592"
    INDEX 01 12:09:30
  TRACK 593 AUDIO
    TITLE "TOEIC LR Kinnojyukugo_08_0593"
    INDEX 01 12:11:03
  TRACK 594 AUDIO
    TITLE "TOEIC LR Kinnojyukugo_08_0594"
    INDEX 01 12:12:05
  TRACK 595 AUDIO
    TITLE "TOEIC LR Kinnojyukugo_08_0595"
    INDEX 01 12:13:06
  TRACK 596 AUDIO
    TITLE "TOEIC LR Kinnojyukugo_08_0596"
    INDEX 01 12:13:43
  TRACK 597 AUDIO
    TITLE "TOEIC LR Kinnojyukugo_08_0597"
    INDEX 01 12:16:14
  TRACK 598 AUDIO
    TITLE "TOEIC LR Kinnojyukugo_08_0598"
    INDEX 01 12:16:53
  TRACK 599 AUDIO
    TITLE "TOEIC LR Kinnojyukugo_08_0599"
    INDEX 01 12:17:74
  TRACK 600 AUDIO
    TITLE "TOEIC LR Kinnojyukugo_08_0600"
    INDEX 01 12:18:39
  TRACK 601 AUDIO
    TITLE "TOEIC LR Kinnojyukugo_08_0601"
    INDEX 01 12:20:04
  TRACK 602 AUDIO
    TITLE "TOEIC LR Kinnojyukugo_08_0602"
    INDEX 01 12:20:43
  TRACK 603 AUDIO
    TITLE "TOEIC LR Kinnojyukugo_08_0603"
    INDEX 01 12:22:62
  TRACK 604 AUDIO
    TITLE "TOEIC LR Kinnojyukugo_08_0604"
    INDEX 01 12:23:26
  TRACK 605 AUDIO
    TITLE "TOEIC LR Kinnojyukugo_08_0605"
    INDEX 01 12:25:01
  TRACK 606 AUDIO
    TITLE "TOEIC LR Kinnojyukugo_08_0606"
    INDEX 01 12:25:41
  TRACK 607 AUDIO
    TITLE "TOEIC LR Kinnojyukugo_08_0607"
    INDEX 01 12:27:04
  TRACK 608 AUDIO
    TITLE "TOEIC LR Kinnojyukugo_08_0608"
    INDEX 01 12:27:41
  TRACK 609 AUDIO
    TITLE "TOEIC LR Kinnojyukugo_08_0609"
    INDEX 01 12:29:07
  TRACK 610 AUDIO
    TITLE "TOEIC LR Kinnojyukugo_08_0610"
    INDEX 01 12:30:07
  TRACK 611 AUDIO
    TITLE "TOEIC LR Kinnojyukugo_08_0611"
    INDEX 01 12:31:41
  TRACK 612 AUDIO
    TITLE "TOEIC LR Kinnojyukugo_08_0612"
    INDEX 01 12:32:05
  TRACK 613 AUDIO
    TITLE "TOEIC LR Kinnojyukugo_08_0613"
    INDEX 01 12:34:65
  TRACK 614 AUDIO
    TITLE "TOEIC LR Kinnojyukugo_08_0614"
    INDEX 01 12:35:29
  TRACK 615 AUDIO
    TITLE "TOEIC LR Kinnojyukugo_08_0615"
    INDEX 01 12:37:20
  TRACK 616 AUDIO
    TITLE "TOEIC LR Kinnojyukugo_08_0616"
    INDEX 01 12:37:57
  TRACK 617 AUDIO
    TITLE "TOEIC LR Kinnojyukugo_08_0617"
    INDEX 01 12:39:62
  TRACK 618 AUDIO
    TITLE "TOEIC LR Kinnojyukugo_08_0618"
    INDEX 01 12:40:25
  TRACK 619 AUDIO
    TITLE "TOEIC LR Kinnojyukugo_08_0619"
    INDEX 01 12:42:08
  TRACK 620 AUDIO
    TITLE "TOEIC LR Kinnojyukugo_08_0620"
    INDEX 01 12:42:45
  TRACK 621 AUDIO
    TITLE "TOEIC LR Kinnojyukugo_08_0621"
    INDEX 01 12:44:56
  TRACK 622 AUDIO
    TITLE "TOEIC LR Kinnojyukugo_08_0622"
    INDEX 01 12:45:22
  TRACK 623 AUDIO
    TITLE "TOEIC LR Kinnojyukugo_08_0623"
    INDEX 01 12:47:13
  TRACK 624 AUDIO
    TITLE "TOEIC LR Kinnojyukugo_08_0624"
    INDEX 01 12:47:50
  TRACK 625 AUDIO
    TITLE "TOEIC LR Kinnojyukugo_08_0625"
    INDEX 01 12:49:59
  TRACK 626 AUDIO
    TITLE "TOEIC LR Kinnojyukugo_08_0626"
    INDEX 01 12:50:60
  TRACK 627 AUDIO
    TITLE "TOEIC LR Kinnojyukugo_08_0627"
    INDEX 01 12:52:00
  TRACK 628 AUDIO
    TITLE "TOEIC LR Kinnojyukugo_08_0628"
    INDEX 01 12:52:37
  TRACK 629 AUDIO
    TITLE "TOEIC LR Kinnojyukugo_08_0629"
    INDEX 01 12:55:04
  TRACK 630 AUDIO
    TITLE "TOEIC LR Kinnojyukugo_08_0630"
    INDEX 01 12:55:44
  TRACK 631 AUDIO
    TITLE "TOEIC LR Kinnojyukugo_08_0631"
    INDEX 01 12:57:03
  TRACK 632 AUDIO
    TITLE "TOEIC LR Kinnojyukugo_08_0632"
    INDEX 01 12:57:43
  TRACK 633 AUDIO
    TITLE "TOEIC LR Kinnojyukugo_08_0633"
    INDEX 01 12:59:12
  TRACK 634 AUDIO
    TITLE "TOEIC LR Kinnojyukugo_08_0634"
    INDEX 01 12:59:51
  TRACK 635 AUDIO
    TITLE "TOEIC LR Kinnojyukugo_08_0635"
    INDEX 01 13:01:13
  TRACK 636 AUDIO
    TITLE "TOEIC LR Kinnojyukugo_08_0636"
    INDEX 01 13:01:50
  TRACK 637 AUDIO
    TITLE "TOEIC LR Kinnojyukugo_08_0637"
    INDEX 01 13:03:29
  TRACK 638 AUDIO
    TITLE "TOEIC LR Kinnojyukugo_08_0638"
    INDEX 01 13:03:67
  TRACK 639 AUDIO
    TITLE "TOEIC LR Kinnojyukugo_08_0639"
    INDEX 01 13:05:30
  TRACK 640 AUDIO
    TITLE "TOEIC LR Kinnojyukugo_08_0640"
    INDEX 01 13:05:68
  TRACK 641 AUDIO
    TITLE "TOEIC LR Kinnojyukugo_08_0641"
    INDEX 01 13:07:61
  TRACK 642 AUDIO
    TITLE "TOEIC LR Kinnojyukugo_08_0642"
    INDEX 01 13:08:60
  TRACK 643 AUDIO
    TITLE "TOEIC LR Kinnojyukugo_08_0643"
    INDEX 01 13:09:69
  TRACK 644 AUDIO
    TITLE "TOEIC LR Kinnojyukugo_08_0644"
    INDEX 01 13:10:33
  TRACK 645 AUDIO
    TITLE "TOEIC LR Kinnojyukugo_08_0645"
    INDEX 01 13:13:49
  TRACK 646 AUDIO
    TITLE "TOEIC LR Kinnojyukugo_08_0646"
    INDEX 01 13:14:18
  TRACK 647 AUDIO
    TITLE "TOEIC LR Kinnojyukugo_08_0647"
    INDEX 01 13:16:18
  TRACK 648 AUDIO
    TITLE "TOEIC LR Kinnojyukugo_08_0648"
    INDEX 01 13:16:56
  TRACK 649 AUDIO
    TITLE "TOEIC LR Kinnojyukugo_08_0649"
    INDEX 01 13:18:25
  TRACK 650 AUDIO
    TITLE "TOEIC LR Kinnojyukugo_08_0650"
    INDEX 01 13:18:64
  TRACK 651 AUDIO
    TITLE "TOEIC LR Kinnojyukugo_08_0651"
    INDEX 01 13:20:61
  TRACK 652 AUDIO
    TITLE "TOEIC LR Kinnojyukugo_08_0652"
    INDEX 01 13:21:21
  TRACK 653 AUDIO
    TITLE "TOEIC LR Kinnojyukugo_08_0653"
    INDEX 01 13:23:05
  TRACK 654 AUDIO
    TITLE "TOEIC LR Kinnojyukugo_08_0654"
    INDEX 01 13:23:44
  TRACK 655 AUDIO
    TITLE "TOEIC LR Kinnojyukugo_08_0655"
    INDEX 01 13:25:37
  TRACK 656 AUDIO
    TITLE "TOEIC LR Kinnojyukugo_08_0656"
    INDEX 01 13:26:01
  TRACK 657 AUDIO
    TITLE "TOEIC LR Kinnojyukugo_08_0657"
    INDEX 01 13:27:44
  TRACK 658 AUDIO
    TITLE "TOEIC LR Kinnojyukugo_08_0658"
    INDEX 01 13:28:45
  TRACK 659 AUDIO
    TITLE "TOEIC LR Kinnojyukugo_08_0659"
    INDEX 01 13:29:64
  TRACK 660 AUDIO
    TITLE "TOEIC LR Kinnojyukugo_08_0660"
    INDEX 01 13:30:26
  TRACK 661 AUDIO
    TITLE "TOEIC LR Kinnojyukugo_08_0661"
    INDEX 01 13:32:27
  TRACK 662 AUDIO
    TITLE "TOEIC LR Kinnojyukugo_08_0662"
    INDEX 01 13:32:66
  TRACK 663 AUDIO
    TITLE "TOEIC LR Kinnojyukugo_08_0663"
    INDEX 01 13:35:12
  TRACK 664 AUDIO
    TITLE "TOEIC LR Kinnojyukugo_08_0664"
    INDEX 01 13:35:49
  TRACK 665 AUDIO
    TITLE "TOEIC LR Kinnojyukugo_08_0665"
    INDEX 01 13:37:34
  TRACK 666 AUDIO
    TITLE "TOEIC LR Kinnojyukugo_08_0666"
    INDEX 01 13:38:02
  TRACK 667 AUDIO
    TITLE "TOEIC LR Kinnojyukugo_08_0667"
    INDEX 01 13:40:17
  TRACK 668 AUDIO
    TITLE "TOEIC LR Kinnojyukugo_08_0668"
    INDEX 01 13:40:54
  TRACK 669 AUDIO
    TITLE "TOEIC LR Kinnojyukugo_08_0669"
    INDEX 01 13:42:59
  TRACK 670 AUDIO
    TITLE "TOEIC LR Kinnojyukugo_08_0670"
    INDEX 01 13:43:21
  TRACK 671 AUDIO
    TITLE "TOEIC LR Kinnojyukugo_08_0671"
    INDEX 01 13:45:47
  TRACK 672 AUDIO
    TITLE "TOEIC LR Kinnojyukugo_08_0672"
    INDEX 01 13:46:10
  TRACK 673 AUDIO
    TITLE "TOEIC LR Kinnojyukugo_08_0673"
    INDEX 01 13:48:05
  TRACK 674 AUDIO
    TITLE "TOEIC LR Kinnojyukugo_08_0674"
    INDEX 01 13:49:02
  TRACK 675 AUDIO
    TITLE "TOEIC LR Kinnojyukugo_08_0675"
    INDEX 01 13:50:07
  TRACK 676 AUDIO
    TITLE "TOEIC LR Kinnojyukugo_08_0676"
    INDEX 01 13:50:45
  TRACK 677 AUDIO
    TITLE "TOEIC LR Kinnojyukugo_08_0677"
    INDEX 01 13:53:45
  TRACK 678 AUDIO
    TITLE "TOEIC LR Kinnojyukugo_08_0678"
    INDEX 01 13:54:13
  TRACK 679 AUDIO
    TITLE "TOEIC LR Kinnojyukugo_08_0679"
    INDEX 01 13:55:69
  TRACK 680 AUDIO
    TITLE "TOEIC LR Kinnojyukugo_08_0680"
    INDEX 01 13:56:32
  TRACK 681 AUDIO
    TITLE "TOEIC LR Kinnojyukugo_08_0681"
    INDEX 01 13:58:03
  TRACK 682 AUDIO
    TITLE "TOEIC LR Kinnojyukugo_08_0682"
    INDEX 01 13:58:42
  TRACK 683 AUDIO
    TITLE "TOEIC LR Kinnojyukugo_08_0683"
    INDEX 01 14:00:27
  TRACK 684 AUDIO
    TITLE "TOEIC LR Kinnojyukugo_08_0684"
    INDEX 01 14:00:63
  TRACK 685 AUDIO
    TITLE "TOEIC LR Kinnojyukugo_08_0685"
    INDEX 01 14:02:32
  TRACK 686 AUDIO
    TITLE "TOEIC LR Kinnojyukugo_08_0686"
    INDEX 01 14:02:66
  TRACK 687 AUDIO
    TITLE "TOEIC LR Kinnojyukugo_08_0687"
    INDEX 01 14:04:59
  TRACK 688 AUDIO
    TITLE "TOEIC LR Kinnojyukugo_08_0688"
    INDEX 01 14:05:23
  TRACK 689 AUDIO
    TITLE "TOEIC LR Kinnojyukugo_08_0689"
    INDEX 01 14:07:04
  TRACK 690 AUDIO
    TITLE "TOEIC LR Kinnojyukugo_08_0690"
    INDEX 01 14:08:05
  TRACK 691 AUDIO
    TITLE "TOEIC LR Kinnojyukugo_08_0691"
    INDEX 01 14:09:09
  TRACK 692 AUDIO
    TITLE "TOEIC LR Kinnojyukugo_08_0692"
    INDEX 01 14:09:48
  TRACK 693 AUDIO
    TITLE "TOEIC LR Kinnojyukugo_08_0693"
    INDEX 01 14:12:58
  TRACK 694 AUDIO
    TITLE "TOEIC LR Kinnojyukugo_08_0694"
    INDEX 01 14:13:20
  TRACK 695 AUDIO
    TITLE "TOEIC LR Kinnojyukugo_08_0695"
    INDEX 01 14:15:37
  TRACK 696 AUDIO
    TITLE "TOEIC LR Kinnojyukugo_08_0696"
    INDEX 01 14:16:01
  TRACK 697 AUDIO
    TITLE "TOEIC LR Kinnojyukugo_08_0697"
    INDEX 01 14:18:00
  TRACK 698 AUDIO
    TITLE "TOEIC LR Kinnojyukugo_08_0698"
    INDEX 01 14:18:37
  TRACK 699 AUDIO
    TITLE "TOEIC LR Kinnojyukugo_08_0699"
    INDEX 01 14:20:20
  TRACK 700 AUDIO
    TITLE "TOEIC LR Kinnojyukugo_08_0700"
    INDEX 01 14:20:60
  TRACK 701 AUDIO
    TITLE "TOEIC LR Kinnojyukugo_08_0701"
    INDEX 01 14:22:19
  TRACK 702 AUDIO
    TITLE "TOEIC LR Kinnojyukugo_08_0702"
    INDEX 01 14:22:58
  TRACK 703 AUDIO
    TITLE "TOEIC LR Kinnojyukugo_08_0703"
    INDEX 01 14:24:49
  TRACK 704 AUDIO
    TITLE "TOEIC LR Kinnojyukugo_08_0704"
    INDEX 01 14:25:14
  TRACK 705 AUDIO
    TITLE "TOEIC LR Kinnojyukugo_08_0705"
    INDEX 01 14:26:72
  TRACK 706 AUDIO
    TITLE "TOEIC LR Kinnojyukugo_08_0706"
    INDEX 01 14:27:73
  TRACK 707 AUDIO
    TITLE "TOEIC LR Kinnojyukugo_08_0707"
    INDEX 01 14:29:06
  TRACK 708 AUDIO
    TITLE "TOEIC LR Kinnojyukugo_08_0708"
    INDEX 01 14:29:43
  TRACK 709 AUDIO
    TITLE "TOEIC LR Kinnojyukugo_08_0709"
    INDEX 01 14:33:62
  TRACK 710 AUDIO
    TITLE "TOEIC LR Kinnojyukugo_08_0710"
    INDEX 01 14:34:22
  TRACK 711 AUDIO
    TITLE "TOEIC LR Kinnojyukugo_08_0711"
    INDEX 01 14:36:06
  TRACK 712 AUDIO
    TITLE "TOEIC LR Kinnojyukugo_08_0712"
    INDEX 01 14:36:43
  TRACK 713 AUDIO
    TITLE "TOEIC LR Kinnojyukugo_08_0713"
    INDEX 01 14:38:14
  TRACK 714 AUDIO
    TITLE "TOEIC LR Kinnojyukugo_08_0714"
    INDEX 01 14:38:50
  TRACK 715 AUDIO
    TITLE "TOEIC LR Kinnojyukugo_08_0715"
    INDEX 01 14:40:01
  TRACK 716 AUDIO
    TITLE "TOEIC LR Kinnojyukugo_08_0716"
    INDEX 01 14:40:41
  TRACK 717 AUDIO
    TITLE "TOEIC LR Kinnojyukugo_08_0717"
    INDEX 01 14:42:06
  TRACK 718 AUDIO
    TITLE "TOEIC LR Kinnojyukugo_08_0718"
    INDEX 01 14:42:38
  TRACK 719 AUDIO
    TITLE "TOEIC LR Kinnojyukugo_08_0719"
    INDEX 01 14:44:21
  TRACK 720 AUDIO
    TITLE "TOEIC LR Kinnojyukugo_08_0720"
    INDEX 01 14:44:60
  TRACK 721 AUDIO
    TITLE "TOEIC LR Kinnojyukugo_08_0721"
    INDEX 01 14:46:30
  TRACK 722 AUDIO
    TITLE "TOEIC LR Kinnojyukugo_08_0722"
    INDEX 01 14:47:27
  TRACK 723 AUDIO
    TITLE "TOEIC LR Kinnojyukugo_08_0723"
    INDEX 01 14:48:46
  TRACK 724 AUDIO
    TITLE "TOEIC LR Kinnojyukugo_08_0724"
    INDEX 01 14:49:08
  TRACK 725 AUDIO
    TITLE "TOEIC LR Kinnojyukugo_08_0725"
    INDEX 01 14:54:11
  TRACK 726 AUDIO
    TITLE "TOEIC LR Kinnojyukugo_08_0726"
    INDEX 01 14:54:53
  TRACK 727 AUDIO
    TITLE "TOEIC LR Kinnojyukugo_08_0727"
    INDEX 01 14:56:28
  TRACK 728 AUDIO
    TITLE "TOEIC LR Kinnojyukugo_08_0728"
    INDEX 01 14:56:65
  TRACK 729 AUDIO
    TITLE "TOEIC LR Kinnojyukugo_08_0729"
    INDEX 01 14:58:58
  TRACK 730 AUDIO
    TITLE "TOEIC LR Kinnojyukugo_08_0730"
    INDEX 01 14:59:22
  TRACK 731 AUDIO
    TITLE "TOEIC LR Kinnojyukugo_08_0731"
    INDEX 01 15:00:69
  TRACK 732 AUDIO
    TITLE "TOEIC LR Kinnojyukugo_08_0732"
    INDEX 01 15:01:35
  TRACK 733 AUDIO
    TITLE "TOEIC LR Kinnojyukugo_08_0733"
    INDEX 01 15:02:70
  TRACK 734 AUDIO
    TITLE "TOEIC LR Kinnojyukugo_08_0734"
    INDEX 01 15:03:34
  TRACK 735 AUDIO
    TITLE "TOEIC LR Kinnojyukugo_08_0735"
    INDEX 01 15:05:09
  TRACK 736 AUDIO
    TITLE "TOEIC LR Kinnojyukugo_08_0736"
    INDEX 01 15:05:48
  TRACK 737 AUDIO
    TITLE "TOEIC LR Kinnojyukugo_08_0737"
    INDEX 01 15:07:36
  TRACK 738 AUDIO
    TITLE "TOEIC LR Kinnojyukugo_08_0738"
    INDEX 01 15:08:35
  TRACK 739 AUDIO
    TITLE "TOEIC LR Kinnojyukugo_08_0739"
    INDEX 01 15:09:60
  TRACK 740 AUDIO
    TITLE "TOEIC LR Kinnojyukugo_08_0740"
    INDEX 01 15:10:22
  TRACK 741 AUDIO
    TITLE "TOEIC LR Kinnojyukugo_08_0741"
    INDEX 01 15:16:29
  TRACK 742 AUDIO
    TITLE "TOEIC LR Kinnojyukugo_08_0742"
    INDEX 01 15:16:68
  TRACK 743 AUDIO
    TITLE "TOEIC LR Kinnojyukugo_08_0743"
    INDEX 01 15:18:61
  TRACK 744 AUDIO
    TITLE "TOEIC LR Kinnojyukugo_08_0744"
    INDEX 01 15:19:25
  TRACK 745 AUDIO
    TITLE "TOEIC LR Kinnojyukugo_08_0745"
    INDEX 01 15:21:04
  TRACK 746 AUDIO
    TITLE "TOEIC LR Kinnojyukugo_08_0746"
    INDEX 01 15:21:44
  TRACK 747 AUDIO
    TITLE "TOEIC LR Kinnojyukugo_08_0747"
    INDEX 01 15:23:64
  TRACK 748 AUDIO
    TITLE "TOEIC LR Kinnojyukugo_08_0748"
    INDEX 01 15:24:24
  TRACK 749 AUDIO
    TITLE "TOEIC LR Kinnojyukugo_08_0749"
    INDEX 01 15:26:29
  TRACK 750 AUDIO
    TITLE "TOEIC LR Kinnojyukugo_08_0750"
    INDEX 01 15:26:64
  TRACK 751 AUDIO
    TITLE "TOEIC LR Kinnojyukugo_08_0751"
    INDEX 01 15:28:49
  TRACK 752 AUDIO
    TITLE "TOEIC LR Kinnojyukugo_08_0752"
    INDEX 01 15:29:14
  TRACK 753 AUDIO
    TITLE "TOEIC LR Kinnojyukugo_08_0753"
    INDEX 01 15:31:09
  TRACK 754 AUDIO
    TITLE "TOEIC LR Kinnojyukugo_08_0754"
    INDEX 01 15:32:08
  TRACK 755 AUDIO
    TITLE "TOEIC LR Kinnojyukugo_08_0755"
    INDEX 01 15:33:25
  TRACK 756 AUDIO
    TITLE "TOEIC LR Kinnojyukugo_08_0756"
    INDEX 01 15:33:62
  TRACK 757 AUDIO
    TITLE "TOEIC LR Kinnojyukugo_08_0757"
    INDEX 01 15:39:16
  TRACK 758 AUDIO
    TITLE "TOEIC LR Kinnojyukugo_08_0758"
    INDEX 01 15:39:55
  TRACK 759 AUDIO
    TITLE "TOEIC LR Kinnojyukugo_08_0759"
    INDEX 01 15:41:52
  TRACK 760 AUDIO
    TITLE "TOEIC LR Kinnojyukugo_08_0760"
    INDEX 01 15:42:08
  TRACK 761 AUDIO
    TITLE "TOEIC LR Kinnojyukugo_08_0761"
    INDEX 01 15:43:59
  TRACK 762 AUDIO
    TITLE "TOEIC LR Kinnojyukugo_08_0762"
    INDEX 01 15:44:21
  TRACK 763 AUDIO
    TITLE "TOEIC LR Kinnojyukugo_08_0763"
    INDEX 01 15:45:48
  TRACK 764 AUDIO
    TITLE "TOEIC LR Kinnojyukugo_08_0764"
    INDEX 01 15:46:10
  TRACK 765 AUDIO
    TITLE "TOEIC LR Kinnojyukugo_08_0765"
    INDEX 01 15:47:74
  TRACK 766 AUDIO
    TITLE "TOEIC LR Kinnojyukugo_08_0766"
    INDEX 01 15:48:37
  TRACK 767 AUDIO
    TITLE "TOEIC LR Kinnojyukugo_08_0767"
    INDEX 01 15:50:55
  TRACK 768 AUDIO
    TITLE "TOEIC LR Kinnojyukugo_08_0768"
    INDEX 01 15:51:19
  TRACK 769 AUDIO
    TITLE "TOEIC LR Kinnojyukugo_08_0769"
    INDEX 01 15:53:20
  TRACK 770 AUDIO
    TITLE "TOEIC LR Kinnojyukugo_08_0770"
    INDEX 01 15:54:19
  TRACK 771 AUDIO
    TITLE "TOEIC LR Kinnojyukugo_08_0771"
    INDEX 01 15:55:42
  TRACK 772 AUDIO
    TITLE "TOEIC LR Kinnojyukugo_08_0772"
    INDEX 01 15:56:11
  TRACK 773 AUDIO
    TITLE "TOEIC LR Kinnojyukugo_08_0773"
    INDEX 01 16:00:71
  TRACK 774 AUDIO
    TITLE "TOEIC LR Kinnojyukugo_08_0774"
    INDEX 01 16:01:35
  TRACK 775 AUDIO
    TITLE "TOEIC LR Kinnojyukugo_08_0775"
    INDEX 01 16:03:20
  TRACK 776 AUDIO
    TITLE "TOEIC LR Kinnojyukugo_08_0776"
    INDEX 01 16:03:60
  TRACK 777 AUDIO
    TITLE "TOEIC LR Kinnojyukugo_08_0777"
    INDEX 01 16:05:31
  TRACK 778 AUDIO
    TITLE "TOEIC LR Kinnojyukugo_08_0778"
    INDEX 01 16:05:72
  TRACK 779 AUDIO
    TITLE "TOEIC LR Kinnojyukugo_08_0779"
    INDEX 01 16:07:50
  TRACK 780 AUDIO
    TITLE "TOEIC LR Kinnojyukugo_08_0780"
    INDEX 01 16:08:14
  TRACK 781 AUDIO
    TITLE "TOEIC LR Kinnojyukugo_08_0781"
    INDEX 01 16:09:72
  TRACK 782 AUDIO
    TITLE "TOEIC LR Kinnojyukugo_08_0782"
    INDEX 01 16:10:38
  TRACK 783 AUDIO
    TITLE "TOEIC LR Kinnojyukugo_08_0783"
    INDEX 01 16:12:41
  TRACK 784 AUDIO
    TITLE "TOEIC LR Kinnojyukugo_08_0784"
    INDEX 01 16:13:05
  TRACK 785 AUDIO
    TITLE "TOEIC LR Kinnojyukugo_08_0785"
    INDEX 01 16:14:55
  TRACK 786 AUDIO
    TITLE "TOEIC LR Kinnojyukugo_08_0786"
    INDEX 01 16:15:57
  TRACK 787 AUDIO
    TITLE "TOEIC LR Kinnojyukugo_08_0787"
    INDEX 01 16:17:03
  TRACK 788 AUDIO
    TITLE "TOEIC LR Kinnojyukugo_08_0788"
    INDEX 01 16:17:38
  TRACK 789 AUDIO
    TITLE "TOEIC LR Kinnojyukugo_08_0789"
    INDEX 01 16:19:57
  TRACK 790 AUDIO
    TITLE "TOEIC LR Kinnojyukugo_08_0790"
    INDEX 01 16:20:17
  TRACK 791 AUDIO
    TITLE "TOEIC LR Kinnojyukugo_08_0791"
    INDEX 01 16:21:36
  TRACK 792 AUDIO
    TITLE "TOEIC LR Kinnojyukugo_08_0792"
    INDEX 01 16:21:73
  TRACK 793 AUDIO
    TITLE "TOEIC LR Kinnojyukugo_08_0793"
    INDEX 01 16:23:47
  TRACK 794 AUDIO
    TITLE "TOEIC LR Kinnojyukugo_08_0794"
    INDEX 01 16:24:05
  TRACK 795 AUDIO
    TITLE "TOEIC LR Kinnojyukugo_08_0795"
    INDEX 01 16:25:38
  TRACK 796 AUDIO
    TITLE "TOEIC LR Kinnojyukugo_08_0796"
    INDEX 01 16:26:04
  TRACK 797 AUDIO
    TITLE "TOEIC LR Kinnojyukugo_08_0797"
    INDEX 01 16:27:60
  TRACK 798 AUDIO
    TITLE "TOEIC LR Kinnojyukugo_08_0798"
    INDEX 01 16:28:22
  TRACK 799 AUDIO
    TITLE "TOEIC LR Kinnojyukugo_08_0799"
    INDEX 01 16:30:00
  TRACK 800 AUDIO
    TITLE "TOEIC LR Kinnojyukugo_08_0800"
    INDEX 01 16:30:39
  TRACK 801 AUDIO
    TITLE "TOEIC LR Kinnojyukugo_08_0801"
    INDEX 01 16:32:69
  TRACK 802 AUDIO
    TITLE "TOEIC LR Kinnojyukugo_08_0802"
    INDEX 01 16:33:70
  TRACK 803 AUDIO
    TITLE "TOEIC LR Kinnojyukugo_08_0803"
    INDEX 01 16:35:13
  TRACK 804 AUDIO
    TITLE "TOEIC LR Kinnojyukugo_08_0804"
    INDEX 01 16:35:50
  TRACK 805 AUDIO
    TITLE "TOEIC LR Kinnojyukugo_08_0805"
    INDEX 01 16:40:14
  TRACK 806 AUDIO
    TITLE "TOEIC LR Kinnojyukugo_08_0806"
    INDEX 01 16:40:51
  TRACK 807 AUDIO
    TITLE "TOEIC LR Kinnojyukugo_08_0807"
    INDEX 01 16:42:34
  TRACK 808 AUDIO
    TITLE "TOEIC LR Kinnojyukugo_08_0808"
    INDEX 01 16:42:73
  TRACK 809 AUDIO
    TITLE "TOEIC LR Kinnojyukugo_08_0809"
    INDEX 01 16:44:33
  TRACK 810 AUDIO
    TITLE "TOEIC LR Kinnojyukugo_08_0810"
    INDEX 01 16:44:72
  TRACK 811 AUDIO
    TITLE "TOEIC LR Kinnojyukugo_08_0811"
    INDEX 01 16:46:59
  TRACK 812 AUDIO
    TITLE "TOEIC LR Kinnojyukugo_08_0812"
    INDEX 01 16:47:24
  TRACK 813 AUDIO
    TITLE "TOEIC LR Kinnojyukugo_08_0813"
    INDEX 01 16:48:68
  TRACK 814 AUDIO
    TITLE "TOEIC LR Kinnojyukugo_08_0814"
    INDEX 01 16:49:32
  TRACK 815 AUDIO
    TITLE "TOEIC LR Kinnojyukugo_08_0815"
    INDEX 01 16:51:10
  TRACK 816 AUDIO
    TITLE "TOEIC LR Kinnojyukugo_08_0816"
    INDEX 01 16:51:47
  TRACK 817 AUDIO
    TITLE "TOEIC LR Kinnojyukugo_08_0817"
    INDEX 01 16:53:34
  TRACK 818 AUDIO
    TITLE "TOEIC LR Kinnojyukugo_08_0818"
    INDEX 01 16:54:35
  TRACK 819 AUDIO
    TITLE "TOEIC LR Kinnojyukugo_08_0819"
    INDEX 01 16:55:54
  TRACK 820 AUDIO
    TITLE "TOEIC LR Kinnojyukugo_08_0820"
    INDEX 01 16:56:19
  TRACK 821 AUDIO
    TITLE "TOEIC LR Kinnojyukugo_08_0821"
    INDEX 01 16:57:49
  TRACK 822 AUDIO
    TITLE "TOEIC LR Kinnojyukugo_08_0822"
    INDEX 01 16:58:14
  TRACK 823 AUDIO
    TITLE "TOEIC LR Kinnojyukugo_08_0823"
    INDEX 01 17:00:05
  TRACK 824 AUDIO
    TITLE "TOEIC LR Kinnojyukugo_08_0824"
    INDEX 01 17:00:46
  TRACK 825 AUDIO
    TITLE "TOEIC LR Kinnojyukugo_08_0825"
    INDEX 01 17:02:23
  TRACK 826 AUDIO
    TITLE "TOEIC LR Kinnojyukugo_08_0826"
    INDEX 01 17:02:64
  TRACK 827 AUDIO
    TITLE "TOEIC LR Kinnojyukugo_08_0827"
    INDEX 01 17:04:46
  TRACK 828 AUDIO
    TITLE "TOEIC LR Kinnojyukugo_08_0828"
    INDEX 01 17:05:10
  TRACK 829 AUDIO
    TITLE "TOEIC LR Kinnojyukugo_08_0829"
    INDEX 01 17:06:60
  TRACK 830 AUDIO
    TITLE "TOEIC LR Kinnojyukugo_08_0830"
    INDEX 01 17:07:28
  TRACK 831 AUDIO
    TITLE "TOEIC LR Kinnojyukugo_08_0831"
    INDEX 01 17:09:09
  TRACK 832 AUDIO
    TITLE "TOEIC LR Kinnojyukugo_08_0832"
    INDEX 01 17:09:41
  TRACK 833 AUDIO
    TITLE "TOEIC LR Kinnojyukugo_08_0833"
    INDEX 01 17:11:12
  TRACK 834 AUDIO
    TITLE "TOEIC LR Kinnojyukugo_08_0834"
    INDEX 01 17:12:12
  TRACK 835 AUDIO
    TITLE "TOEIC LR Kinnojyukugo_08_0835"
    INDEX 01 17:13:17
  TRACK 836 AUDIO
    TITLE "TOEIC LR Kinnojyukugo_08_0836"
    INDEX 01 17:13:54
  TRACK 837 AUDIO
    TITLE "TOEIC LR Kinnojyukugo_08_0837"
    INDEX 01 17:18:59
  TRACK 838 AUDIO
    TITLE "TOEIC LR Kinnojyukugo_08_0838"
    INDEX 01 17:19:24
  TRACK 839 AUDIO
    TITLE "TOEIC LR Kinnojyukugo_08_0839"
    INDEX 01 17:21:21
  TRACK 840 AUDIO
    TITLE "TOEIC LR Kinnojyukugo_08_0840"
    INDEX 01 17:21:60
  TRACK 841 AUDIO
    TITLE "TOEIC LR Kinnojyukugo_08_0841"
    INDEX 01 17:23:25
  TRACK 842 AUDIO
    TITLE "TOEIC LR Kinnojyukugo_08_0842"
    INDEX 01 17:23:63
  TRACK 843 AUDIO
    TITLE "TOEIC LR Kinnojyukugo_08_0843"
    INDEX 01 17:25:42
  TRACK 844 AUDIO
    TITLE "TOEIC LR Kinnojyukugo_08_0844"
    INDEX 01 17:26:06
  TRACK 845 AUDIO
    TITLE "TOEIC LR Kinnojyukugo_08_0845"
    INDEX 01 17:27:31
  TRACK 846 AUDIO
    TITLE "TOEIC LR Kinnojyukugo_08_0846"
    INDEX 01 17:27:68
  TRACK 847 AUDIO
    TITLE "TOEIC LR Kinnojyukugo_08_0847"
    INDEX 01 17:30:08
  TRACK 848 AUDIO
    TITLE "TOEIC LR Kinnojyukugo_08_0848"
    INDEX 01 17:30:45
  TRACK 849 AUDIO
    TITLE "TOEIC LR Kinnojyukugo_08_0849"
    INDEX 01 17:32:13
  TRACK 850 AUDIO
    TITLE "TOEIC LR Kinnojyukugo_08_0850"
    INDEX 01 17:33:10
  TRACK 851 AUDIO
    TITLE "TOEIC LR Kinnojyukugo_08_0851"
    INDEX 01 17:34:23
  TRACK 852 AUDIO
    TITLE "TOEIC LR Kinnojyukugo_08_0852"
    INDEX 01 17:34:62
  TRACK 853 AUDIO
    TITLE "TOEIC LR Kinnojyukugo_08_0853"
    INDEX 01 17:36:26
  TRACK 854 AUDIO
    TITLE "TOEIC LR Kinnojyukugo_08_0854"
    INDEX 01 17:36:63
  TRACK 855 AUDIO
    TITLE "TOEIC LR Kinnojyukugo_08_0855"
    INDEX 01 17:38:54
  TRACK 856 AUDIO
    TITLE "TOEIC LR Kinnojyukugo_08_0856"
    INDEX 01 17:39:15
  TRACK 857 AUDIO
    TITLE "TOEIC LR Kinnojyukugo_08_0857"
    INDEX 01 17:40:61
  TRACK 858 AUDIO
    TITLE "TOEIC LR Kinnojyukugo_08_0858"
    INDEX 01 17:41:29
  TRACK 859 AUDIO
    TITLE "TOEIC LR Kinnojyukugo_08_0859"
    INDEX 01 17:43:20
  TRACK 860 AUDIO
    TITLE "TOEIC LR Kinnojyukugo_08_0860"
    INDEX 01 17:43:57
  TRACK 861 AUDIO
    TITLE "TOEIC LR Kinnojyukugo_08_0861"
    INDEX 01 17:45:17
  TRACK 862 AUDIO
    TITLE "TOEIC LR Kinnojyukugo_08_0862"
    INDEX 01 17:45:54
  TRACK 863 AUDIO
    TITLE "TOEIC LR Kinnojyukugo_08_0863"
    INDEX 01 17:47:43
  TRACK 864 AUDIO
    TITLE "TOEIC LR Kinnojyukugo_08_0864"
    INDEX 01 17:48:06
  TRACK 865 AUDIO
    TITLE "TOEIC LR Kinnojyukugo_08_0865"
    INDEX 01 17:49:46
  TRACK 866 AUDIO
    TITLE "TOEIC LR Kinnojyukugo_08_0866"
    INDEX 01 17:50:48
  TRACK 867 AUDIO
    TITLE "TOEIC LR Kinnojyukugo_08_0867"
    INDEX 01 17:51:57
  TRACK 868 AUDIO
    TITLE "TOEIC LR Kinnojyukugo_08_0868"
    INDEX 01 17:52:21
  TRACK 869 AUDIO
    TITLE "TOEIC LR Kinnojyukugo_08_0869"
    INDEX 01 17:57:10
  TRACK 870 AUDIO
    TITLE "TOEIC LR Kinnojyukugo_08_0870"
    INDEX 01 17:57:50
  TRACK 871 AUDIO
    TITLE "TOEIC LR Kinnojyukugo_08_0871"
    INDEX 01 17:59:54
  TRACK 872 AUDIO
    TITLE "TOEIC LR Kinnojyukugo_08_0872"
    INDEX 01 18:00:19
  TRACK 873 AUDIO
    TITLE "TOEIC LR Kinnojyukugo_08_0873"
    INDEX 01 18:01:49
  TRACK 874 AUDIO
    TITLE "TOEIC LR Kinnojyukugo_08_0874"
    INDEX 01 18:02:12
  TRACK 875 AUDIO
    TITLE "TOEIC LR Kinnojyukugo_08_0875"
    INDEX 01 18:04:09
  TRACK 876 AUDIO
    TITLE "TOEIC LR Kinnojyukugo_08_0876"
    INDEX 01 18:04:46
  TRACK 877 AUDIO
    TITLE "TOEIC LR Kinnojyukugo_08_0877"
    INDEX 01 18:06:17
  TRACK 878 AUDIO
    TITLE "TOEIC LR Kinnojyukugo_08_0878"
    INDEX 01 18:06:58
  TRACK 879 AUDIO
    TITLE "TOEIC LR Kinnojyukugo_08_0879"
    INDEX 01 18:09:00
  TRACK 880 AUDIO
    TITLE "TOEIC LR Kinnojyukugo_08_0880"
    INDEX 01 18:09:37
  TRACK 881 AUDIO
    TITLE "TOEIC LR Kinnojyukugo_08_0881"
    INDEX 01 18:11:52
  TRACK 882 AUDIO
    TITLE "TOEIC LR Kinnojyukugo_08_0882"
    INDEX 01 18:12:53
  TRACK 883 AUDIO
    TITLE "TOEIC LR Kinnojyukugo_08_0883"
    INDEX 01 18:13:60
  TRACK 884 AUDIO
    TITLE "TOEIC LR Kinnojyukugo_08_0884"
    INDEX 01 18:14:23
  TRACK 885 AUDIO
    TITLE "TOEIC LR Kinnojyukugo_08_0885"
    INDEX 01 18:18:38
  TRACK 886 AUDIO
    TITLE "TOEIC LR Kinnojyukugo_08_0886"
    INDEX 01 18:19:00
  TRACK 887 AUDIO
    TITLE "TOEIC LR Kinnojyukugo_08_0887"
    INDEX 01 18:20:72
  TRACK 888 AUDIO
    TITLE "TOEIC LR Kinnojyukugo_08_0888"
    INDEX 01 18:21:34
  TRACK 889 AUDIO
    TITLE "TOEIC LR Kinnojyukugo_08_0889"
    INDEX 01 18:23:12
  TRACK 890 AUDIO
    TITLE "TOEIC LR Kinnojyukugo_08_0890"
    INDEX 01 18:23:51
  TRACK 891 AUDIO
    TITLE "TOEIC LR Kinnojyukugo_08_0891"
    INDEX 01 18:25:21
  TRACK 892 AUDIO
    TITLE "TOEIC LR Kinnojyukugo_08_0892"
    INDEX 01 18:25:58
  TRACK 893 AUDIO
    TITLE "TOEIC LR Kinnojyukugo_08_0893"
    INDEX 01 18:27:27
  TRACK 894 AUDIO
    TITLE "TOEIC LR Kinnojyukugo_08_0894"
    INDEX 01 18:27:64
  TRACK 895 AUDIO
    TITLE "TOEIC LR Kinnojyukugo_08_0895"
    INDEX 01 18:29:63
  TRACK 896 AUDIO
    TITLE "TOEIC LR Kinnojyukugo_08_0896"
    INDEX 01 18:30:28
  TRACK 897 AUDIO
    TITLE "TOEIC LR Kinnojyukugo_08_0897"
    INDEX 01 18:31:62
  TRACK 898 AUDIO
    TITLE "TOEIC LR Kinnojyukugo_08_0898"
    INDEX 01 18:33:00
  TRACK 899 AUDIO
    TITLE "TOEIC LR Kinnojyukugo_08_0899"
    INDEX 01 18:34:02
  TRACK 900 AUDIO
    TITLE "TOEIC LR Kinnojyukugo_08_0900"
    INDEX 01 18:34:53
  TRACK 901 AUDIO
    TITLE "TOEIC LR Kinnojyukugo_08_0901"
    INDEX 01 18:36:14
  TRACK 902 AUDIO
    TITLE "TOEIC LR Kinnojyukugo_08_0902"
    INDEX 01 18:36:52
  TRACK 903 AUDIO
    TITLE "TOEIC LR Kinnojyukugo_08_0903"
    INDEX 01 18:38:37
  TRACK 904 AUDIO
    TITLE "TOEIC LR Kinnojyukugo_08_0904"
    INDEX 01 18:39:01
  TRACK 905 AUDIO
    TITLE "TOEIC LR Kinnojyukugo_08_0905"
    INDEX 01 18:40:40
  TRACK 906 AUDIO
    TITLE "TOEIC LR Kinnojyukugo_08_0906"
    INDEX 01 18:41:02
  TRACK 907 AUDIO
    TITLE "TOEIC LR Kinnojyukugo_08_0907"
    INDEX 01 18:43:01
  TRACK 908 AUDIO
    TITLE "TOEIC LR Kinnojyukugo_08_0908"
    INDEX 01 18:43:38
  TRACK 909 AUDIO
    TITLE "TOEIC LR Kinnojyukugo_08_0909"
    INDEX 01 18:45:09
  TRACK 910 AUDIO
    TITLE "TOEIC LR Kinnojyukugo_08_0910"
    INDEX 01 18:45:47
  TRACK 911 AUDIO
    TITLE "TOEIC LR Kinnojyukugo_08_0911"
    INDEX 01 18:47:52
  TRACK 912 AUDIO
    TITLE "TOEIC LR Kinnojyukugo_08_0912"
    INDEX 01 18:48:16
  TRACK 913 AUDIO
    TITLE "TOEIC LR Kinnojyukugo_08_0913"
    INDEX 01 18:50:07
  TRACK 914 AUDIO
    TITLE "TOEIC LR Kinnojyukugo_08_0914"
    INDEX 01 18:51:08
  TRACK 915 AUDIO
    TITLE "TOEIC LR Kinnojyukugo_08_0915"
    INDEX 01 18:52:23
  TRACK 916 AUDIO
    TITLE "TOEIC LR Kinnojyukugo_08_0916"
    INDEX 01 18:52:62
  TRACK 917 AUDIO
    TITLE "TOEIC LR Kinnojyukugo_08_0917"
    INDEX 01 18:54:01
  TRACK 918 AUDIO
    TITLE "TOEIC LR Kinnojyukugo_08_0918"
    INDEX 01 18:54:38
  TRACK 919 AUDIO
    TITLE "TOEIC LR Kinnojyukugo_08_0919"
    INDEX 01 18:56:00
  TRACK 920 AUDIO
    TITLE "TOEIC LR Kinnojyukugo_08_0920"
    INDEX 01 18:56:39
  TRACK 921 AUDIO
    TITLE "TOEIC LR Kinnojyukugo_08_0921"
    INDEX 01 18:58:47
  TRACK 922 AUDIO
    TITLE "TOEIC LR Kinnojyukugo_08_0922"
    INDEX 01 18:59:10
  TRACK 923 AUDIO
    TITLE "TOEIC LR Kinnojyukugo_08_0923"
    INDEX 01 19:00:46
  TRACK 924 AUDIO
    TITLE "TOEIC LR Kinnojyukugo_08_0924"
    INDEX 01 19:01:12
  TRACK 925 AUDIO
    TITLE "TOEIC LR Kinnojyukugo_08_0925"
    INDEX 01 19:02:41
  TRACK 926 AUDIO
    TITLE "TOEIC LR Kinnojyukugo_08_0926"
    INDEX 01 19:03:05
  TRACK 927 AUDIO
    TITLE "TOEIC LR Kinnojyukugo_08_0927"
    INDEX 01 19:04:52
  TRACK 928 AUDIO
    TITLE "TOEIC LR Kinnojyukugo_08_0928"
    INDEX 01 19:05:16
  TRACK 929 AUDIO
    TITLE "TOEIC LR Kinnojyukugo_08_0929"
    INDEX 01 19:06:49
  TRACK 930 AUDIO
    TITLE "TOEIC LR Kinnojyukugo_08_0930"
    INDEX 01 19:07:48
  TRACK 931 AUDIO
    TITLE "TOEIC LR Kinnojyukugo_08_0931"
    INDEX 01 19:08:63
  TRACK 932 AUDIO
    TITLE "TOEIC LR Kinnojyukugo_08_0932"
    INDEX 01 19:09:28
  TRACK 933 AUDIO
    TITLE "TOEIC LR Kinnojyukugo_08_0933"
    INDEX 01 19:13:35
  TRACK 934 AUDIO
    TITLE "TOEIC LR Kinnojyukugo_08_0934"
    INDEX 01 19:13:74
  TRACK 935 AUDIO
    TITLE "TOEIC LR Kinnojyukugo_08_0935"
    INDEX 01 19:15:73
  TRACK 936 AUDIO
    TITLE "TOEIC LR Kinnojyukugo_08_0936"
    INDEX 01 19:16:36
  TRACK 937 AUDIO
    TITLE "TOEIC LR Kinnojyukugo_08_0937"
    INDEX 01 19:18:11
  TRACK 938 AUDIO
    TITLE "TOEIC LR Kinnojyukugo_08_0938"
    INDEX 01 19:18:48
  TRACK 939 AUDIO
    TITLE "TOEIC LR Kinnojyukugo_08_0939"
    INDEX 01 19:20:22
  TRACK 940 AUDIO
    TITLE "TOEIC LR Kinnojyukugo_08_0940"
    INDEX 01 19:20:61
  TRACK 941 AUDIO
    TITLE "TOEIC LR Kinnojyukugo_08_0941"
    INDEX 01 19:22:22
  TRACK 942 AUDIO
    TITLE "TOEIC LR Kinnojyukugo_08_0942"
    INDEX 01 19:22:60
  TRACK 943 AUDIO
    TITLE "TOEIC LR Kinnojyukugo_08_0943"
    INDEX 01 19:24:37
  TRACK 944 AUDIO
    TITLE "TOEIC LR Kinnojyukugo_08_0944"
    INDEX 01 19:25:01
  TRACK 945 AUDIO
    TITLE "TOEIC LR Kinnojyukugo_08_0945"
    INDEX 01 19:26:36
  TRACK 946 AUDIO
    TITLE "TOEIC LR Kinnojyukugo_08_0946"
    INDEX 01 19:27:39
  TRACK 947 AUDIO
    TITLE "TOEIC LR Kinnojyukugo_08_0947"
    INDEX 01 19:28:45
  TRACK 948 AUDIO
    TITLE "TOEIC LR Kinnojyukugo_08_0948"
    INDEX 01 19:29:05
  TRACK 949 AUDIO
    TITLE "TOEIC LR Kinnojyukugo_08_0949"
    INDEX 01 19:32:09
  TRACK 950 AUDIO
    TITLE "TOEIC LR Kinnojyukugo_08_0950"
    INDEX 01 19:32:46
  TRACK 951 AUDIO
    TITLE "TOEIC LR Kinnojyukugo_08_0951"
    INDEX 01 19:34:20
  TRACK 952 AUDIO
    TITLE "TOEIC LR Kinnojyukugo_08_0952"
    INDEX 01 19:34:59
  TRACK 953 AUDIO
    TITLE "TOEIC LR Kinnojyukugo_08_0953"
    INDEX 01 19:36:36
  TRACK 954 AUDIO
    TITLE "TOEIC LR Kinnojyukugo_08_0954"
    INDEX 01 19:36:73
  TRACK 955 AUDIO
    TITLE "TOEIC LR Kinnojyukugo_08_0955"
    INDEX 01 19:38:61
  TRACK 956 AUDIO
    TITLE "TOEIC LR Kinnojyukugo_08_0956"
    INDEX 01 19:39:29
  TRACK 957 AUDIO
    TITLE "TOEIC LR Kinnojyukugo_08_0957"
    INDEX 01 19:41:06
  TRACK 958 AUDIO
    TITLE "TOEIC LR Kinnojyukugo_08_0958"
    INDEX 01 19:41:45
  TRACK 959 AUDIO
    TITLE "TOEIC LR Kinnojyukugo_08_0959"
    INDEX 01 19:43:34
  TRACK 960 AUDIO
    TITLE "TOEIC LR Kinnojyukugo_08_0960"
    INDEX 01 19:44:01
  TRACK 961 AUDIO
    TITLE "TOEIC LR Kinnojyukugo_08_0961"
    INDEX 01 19:45:59
  TRACK 962 AUDIO
    TITLE "TOEIC LR Kinnojyukugo_08_0962"
    INDEX 01 19:46:58
  TRACK 963 AUDIO
    TITLE "TOEIC LR Kinnojyukugo_08_0963"
    INDEX 01 19:47:71
  TRACK 964 AUDIO
    TITLE "TOEIC LR Kinnojyukugo_08_0964"
    INDEX 01 19:48:36
  TRACK 965 AUDIO
    TITLE "TOEIC LR Kinnojyukugo_08_0965"
    INDEX 01 19:51:20
  TRACK 966 AUDIO
    TITLE "TOEIC LR Kinnojyukugo_08_0966"
    INDEX 01 19:51:57
  TRACK 967 AUDIO
    TITLE "TOEIC LR Kinnojyukugo_08_0967"
    INDEX 01 19:53:31
  TRACK 968 AUDIO
    TITLE "TOEIC LR Kinnojyukugo_08_0968"
    INDEX 01 19:53:68
  TRACK 969 AUDIO
    TITLE "TOEIC LR Kinnojyukugo_08_0969"
    INDEX 01 19:55:32
  TRACK 970 AUDIO
    TITLE "TOEIC LR Kinnojyukugo_08_0970"
    INDEX 01 19:55:69
  TRACK 971 AUDIO
    TITLE "TOEIC LR Kinnojyukugo_08_0971"
    INDEX 01 19:57:58
  TRACK 972 AUDIO
    TITLE "TOEIC LR Kinnojyukugo_08_0972"
    INDEX 01 19:58:20
  TRACK 973 AUDIO
    TITLE "TOEIC LR Kinnojyukugo_08_0973"
    INDEX 01 19:59:63
  TRACK 974 AUDIO
    TITLE "TOEIC LR Kinnojyukugo_08_0974"
    INDEX 01 20:00:25
  TRACK 975 AUDIO
    TITLE "TOEIC LR Kinnojyukugo_08_0975"
    INDEX 01 20:02:02
  TRACK 976 AUDIO
    TITLE "TOEIC LR Kinnojyukugo_08_0976"
    INDEX 01 20:02:43
  TRACK 977 AUDIO
    TITLE "TOEIC LR Kinnojyukugo_08_0977"
    INDEX 01 20:04:05
  TRACK 978 AUDIO
    TITLE "TOEIC LR Kinnojyukugo_08_0978"
    INDEX 01 20:05:05
  TRACK 979 AUDIO
    TITLE "TOEIC LR Kinnojyukugo_08_0979"
    INDEX 01 20:06:12
  TRACK 980 AUDIO
    TITLE "TOEIC LR Kinnojyukugo_08_0980"
    INDEX 01 20:06:49
  TRACK 981 AUDIO
    TITLE "TOEIC LR Kinnojyukugo_08_0981"
    INDEX 01 20:11:17
  TRACK 982 AUDIO
    TITLE "TOEIC LR Kinnojyukugo_08_0982"
    INDEX 01 20:11:58
  TRACK 983 AUDIO
    TITLE "TOEIC LR Kinnojyukugo_08_0983"
    INDEX 01 20:14:02
  TRACK 984 AUDIO
    TITLE "TOEIC LR Kinnojyukugo_08_0984"
    INDEX 01 20:14:39
  TRACK 985 AUDIO
    TITLE "TOEIC LR Kinnojyukugo_08_0985"
    INDEX 01 20:16:46
  TRACK 986 AUDIO
    TITLE "TOEIC LR Kinnojyukugo_08_0986"
    INDEX 01 20:17:10
  TRACK 987 AUDIO
    TITLE "TOEIC LR Kinnojyukugo_08_0987"
    INDEX 01 20:19:26
  TRACK 988 AUDIO
    TITLE "TOEIC LR Kinnojyukugo_08_0988"
    INDEX 01 20:19:62
  TRACK 989 AUDIO
    TITLE "TOEIC LR Kinnojyukugo_08_0989"
    INDEX 01 20:21:45
  TRACK 990 AUDIO
    TITLE "TOEIC LR Kinnojyukugo_08_0990"
    INDEX 01 20:22:07
  TRACK 991 AUDIO
    TITLE "TOEIC LR Kinnojyukugo_08_0991"
    INDEX 01 20:23:73
  TRACK 992 AUDIO
    TITLE "TOEIC LR Kinnojyukugo_08_0992"
    INDEX 01 20:24:37
  TRACK 993 AUDIO
    TITLE "TOEIC LR Kinnojyukugo_08_0993"
    INDEX 01 20:26:17
  TRACK 994 AUDIO
    TITLE "TOEIC LR Kinnojyukugo_08_0994"
    INDEX 01 20:27:18
  TRACK 995 AUDIO
    TITLE "TOEIC LR Kinnojyukugo_08_0995"
    INDEX 01 20:28:23
  TRACK 996 AUDIO
    TITLE "TOEIC LR Kinnojyukugo_08_0996"
    INDEX 01 20:28:62
  TRACK 997 AUDIO
    TITLE "TOEIC LR Kinnojyukugo_08_0997"
    INDEX 01 20:30:24
  TRACK 998 AUDIO
    TITLE "TOEIC LR Kinnojyukugo_08_0998"
    INDEX 01 20:30:59
  TRACK 999 AUDIO
    TITLE "TOEIC LR Kinnojyukugo_08_0999"
    INDEX 01 20:32:50
  TRACK 1000 AUDIO
    TITLE "TOEIC LR Kinnojyukugo_08_1000"
    INDEX 01 20:33:13
  TRACK 1001 AUDIO
    TITLE "TOEIC LR Kinnojyukugo_08_1001"
    INDEX 01 20:34:61
  TRACK 1002 AUDIO
    TITLE "TOEIC LR Kinnojyukugo_08_1002"
    INDEX 01 20:35:23
  TRACK 1003 AUDIO
    TITLE "TOEIC LR Kinnojyukugo_08_1003"
    INDEX 01 20:37:46
  TRACK 1004 AUDIO
    TITLE "TOEIC LR Kinnojyukugo_08_1004"
    INDEX 01 20:38:08
  TRACK 1005 AUDIO
    TITLE "TOEIC LR Kinnojyukugo_08_1005"
    INDEX 01 20:39:41
  TRACK 1006 AUDIO
    TITLE "TOEIC LR Kinnojyukugo_08_1006"
    INDEX 01 20:40:15
  TRACK 1007 AUDIO
    TITLE "TOEIC LR Kinnojyukugo_08_1007"
    INDEX 01 20:42:10
  TRACK 1008 AUDIO
    TITLE "TOEIC LR Kinnojyukugo_08_1008"
    INDEX 01 20:42:47
  TRACK 1009 AUDIO
    TITLE "TOEIC LR Kinnojyukugo_08_1009"
    INDEX 01 20:44:16
  TRACK 1010 AUDIO
    TITLE "TOEIC LR Kinnojyukugo_08_1010"
    INDEX 01 20:45:18
  TRACK 1011 AUDIO
    TITLE "TOEIC LR Kinnojyukugo_08_1011"
    INDEX 01 20:46:35
  TRACK 1012 AUDIO
    TITLE "TOEIC LR Kinnojyukugo_08_1012"
    INDEX 01 20:46:68
  TRACK 1013 AUDIO
    TITLE "TOEIC LR Kinnojyukugo_08_1013"
    INDEX 01 20:49:72
  TRACK 1014 AUDIO
    TITLE "TOEIC LR Kinnojyukugo_08_1014"
    INDEX 01 20:50:37
  TRACK 1015 AUDIO
    TITLE "TOEIC LR Kinnojyukugo_08_1015"
    INDEX 01 20:52:32
  TRACK 1016 AUDIO
    TITLE "TOEIC LR Kinnojyukugo_08_1016"
    INDEX 01 20:52:71
  TRACK 1017 AUDIO
    TITLE "TOEIC LR Kinnojyukugo_08_1017"
    INDEX 01 20:54:42
  TRACK 1018 AUDIO
    TITLE "TOEIC LR Kinnojyukugo_08_1018"
    INDEX 01 20:55:01
  TRACK 1019 AUDIO
    TITLE "TOEIC LR Kinnojyukugo_08_1019"
    INDEX 01 20:56:73
  TRACK 1020 AUDIO
    TITLE "TOEIC LR Kinnojyukugo_08_1020"
    INDEX 01 20:57:31
  TRACK 1021 AUDIO
    TITLE "TOEIC LR Kinnojyukugo_08_1021"
    INDEX 01 20:59:08
  TRACK 1022 AUDIO
    TITLE "TOEIC LR Kinnojyukugo_08_1022"
    INDEX 01 20:59:45
  TRACK 1023 AUDIO
    TITLE "TOEIC LR Kinnojyukugo_08_1023"
    INDEX 01 21:01:29
  TRACK 1024 AUDIO
    TITLE "TOEIC LR Kinnojyukugo_08_1024"
    INDEX 01 21:01:66
  TRACK 1025 AUDIO
    TITLE "TOEIC LR Kinnojyukugo_08_1025"
    INDEX 01 21:03:49
  TRACK 1026 AUDIO
    TITLE "TOEIC LR Kinnojyukugo_08_1026"
    INDEX 01 21:04:49
  TRACK 1027 AUDIO
    TITLE "TOEIC LR Kinnojyukugo_08_1027"
    INDEX 01 21:05:62
  TRACK 1028 AUDIO
    TITLE "TOEIC LR Kinnojyukugo_08_1028"
    INDEX 01 21:06:24
  TRACK 1029 AUDIO
    TITLE "TOEIC LR Kinnojyukugo_08_1029"
    INDEX 01 21:09:01
  TRACK 1030 AUDIO
    TITLE "TOEIC LR Kinnojyukugo_08_1030"
    INDEX 01 21:09:38
  TRACK 1031 AUDIO
    TITLE "TOEIC LR Kinnojyukugo_08_1031"
    INDEX 01 21:11:00
  TRACK 1032 AUDIO
    TITLE "TOEIC LR Kinnojyukugo_08_1032"
    INDEX 01 21:11:37
  TRACK 1033 AUDIO
    TITLE "TOEIC LR Kinnojyukugo_08_1033"
    INDEX 01 21:13:12
  TRACK 1034 AUDIO
    TITLE "TOEIC LR Kinnojyukugo_08_1034"
    INDEX 01 21:13:51
  TRACK 1035 AUDIO
    TITLE "TOEIC LR Kinnojyukugo_08_1035"
    INDEX 01 21:15:15
  TRACK 1036 AUDIO
    TITLE "TOEIC LR Kinnojyukugo_08_1036"
    INDEX 01 21:15:52
  TRACK 1037 AUDIO
    TITLE "TOEIC LR Kinnojyukugo_08_1037"
    INDEX 01 21:17:43
  TRACK 1038 AUDIO
    TITLE "TOEIC LR Kinnojyukugo_08_1038"
    INDEX 01 21:18:06
  TRACK 1039 AUDIO
    TITLE "TOEIC LR Kinnojyukugo_08_1039"
    INDEX 01 21:19:46
  TRACK 1040 AUDIO
    TITLE "TOEIC LR Kinnojyukugo_08_1040"
    INDEX 01 21:20:10
  TRACK 1041 AUDIO
    TITLE "TOEIC LR Kinnojyukugo_08_1041"
    INDEX 01 21:21:53
  TRACK 1042 AUDIO
    TITLE "TOEIC LR Kinnojyukugo_08_1042"
    INDEX 01 21:22:52
  TRACK 1043 AUDIO
    TITLE "TOEIC LR Kinnojyukugo_08_1043"
    INDEX 01 21:23:63
  TRACK 1044 AUDIO
    TITLE "TOEIC LR Kinnojyukugo_08_1044"
    INDEX 01 21:24:28
  TRACK 1045 AUDIO
    TITLE "TOEIC LR Kinnojyukugo_08_1045"
    INDEX 01 21:26:52
  TRACK 1046 AUDIO
    TITLE "TOEIC LR Kinnojyukugo_08_1046"
    INDEX 01 21:27:14
  TRACK 1047 AUDIO
    TITLE "TOEIC LR Kinnojyukugo_08_1047"
    INDEX 01 21:28:51
  TRACK 1048 AUDIO
    TITLE "TOEIC LR Kinnojyukugo_08_1048"
    INDEX 01 21:29:15
  TRACK 1049 AUDIO
    TITLE "TOEIC LR Kinnojyukugo_08_1049"
    INDEX 01 21:30:69
  TRACK 1050 AUDIO
    TITLE "TOEIC LR Kinnojyukugo_08_1050"
    INDEX 01 21:31:34
  TRACK 1051 AUDIO
    TITLE "TOEIC LR Kinnojyukugo_08_1051"
    INDEX 01 21:33:13
  TRACK 1052 AUDIO
    TITLE "TOEIC LR Kinnojyukugo_08_1052"
    INDEX 01 21:33:50
  TRACK 1053 AUDIO
    TITLE "TOEIC LR Kinnojyukugo_08_1053"
    INDEX 01 21:35:24
  TRACK 1054 AUDIO
    TITLE "TOEIC LR Kinnojyukugo_08_1054"
    INDEX 01 21:35:61
  TRACK 1055 AUDIO
    TITLE "TOEIC LR Kinnojyukugo_08_1055"
    INDEX 01 21:37:22
  TRACK 1056 AUDIO
    TITLE "TOEIC LR Kinnojyukugo_08_1056"
    INDEX 01 21:37:60
  TRACK 1057 AUDIO
    TITLE "TOEIC LR Kinnojyukugo_08_1057"
    INDEX 01 21:39:37
  TRACK 1058 AUDIO
    TITLE "TOEIC LR Kinnojyukugo_08_1058"
    INDEX 01 21:40:38
  TRACK 1059 AUDIO
    TITLE "TOEIC LR Kinnojyukugo_08_1059"
    INDEX 01 21:41:52
  TRACK 1060 AUDIO
    TITLE "TOEIC LR Kinnojyukugo_08_1060"
    INDEX 01 21:42:10
  TRACK 1061 AUDIO
    TITLE "TOEIC LR Kinnojyukugo_08_1061"
    INDEX 01 21:45:00
  TRACK 1062 AUDIO
    TITLE "TOEIC LR Kinnojyukugo_08_1062"
    INDEX 01 21:45:36
  TRACK 1063 AUDIO
    TITLE "TOEIC LR Kinnojyukugo_08_1063"
    INDEX 01 21:47:31
  TRACK 1064 AUDIO
    TITLE "TOEIC LR Kinnojyukugo_08_1064"
    INDEX 01 21:47:68
  TRACK 1065 AUDIO
    TITLE "TOEIC LR Kinnojyukugo_08_1065"
    INDEX 01 21:49:49
  TRACK 1066 AUDIO
    TITLE "TOEIC LR Kinnojyukugo_08_1066"
    INDEX 01 21:50:15
  TRACK 1067 AUDIO
    TITLE "TOEIC LR Kinnojyukugo_08_1067"
    INDEX 01 21:52:20
  TRACK 1068 AUDIO
    TITLE "TOEIC LR Kinnojyukugo_08_1068"
    INDEX 01 21:52:57
  TRACK 1069 AUDIO
    TITLE "TOEIC LR Kinnojyukugo_08_1069"
    INDEX 01 21:54:25
  TRACK 1070 AUDIO
    TITLE "TOEIC LR Kinnojyukugo_08_1070"
    INDEX 01 21:54:62
  TRACK 1071 AUDIO
    TITLE "TOEIC LR Kinnojyukugo_08_1071"
    INDEX 01 21:56:55
  TRACK 1072 AUDIO
    TITLE "TOEIC LR Kinnojyukugo_08_1072"
    INDEX 01 21:57:17
  TRACK 1073 AUDIO
    TITLE "TOEIC LR Kinnojyukugo_08_1073"
    INDEX 01 21:58:48
  TRACK 1074 AUDIO
    TITLE "TOEIC LR Kinnojyukugo_08_1074"
    INDEX 01 21:59:63
  TRACK 1075 AUDIO
    TITLE "TOEIC LR Kinnojyukugo_08_1075"
    INDEX 01 22:00:74
  TRACK 1076 AUDIO
    TITLE "TOEIC LR Kinnojyukugo_08_1076"
    INDEX 01 22:01:37
  TRACK 1077 AUDIO
    TITLE "TOEIC LR Kinnojyukugo_08_1077"
    INDEX 01 22:05:58
  TRACK 1078 AUDIO
    TITLE "TOEIC LR Kinnojyukugo_08_1078"
    INDEX 01 22:06:20
  TRACK 1079 AUDIO
    TITLE "TOEIC LR Kinnojyukugo_08_1079"
    INDEX 01 22:07:65
  TRACK 1080 AUDIO
    TITLE "TOEIC LR Kinnojyukugo_08_1080"
    INDEX 01 22:08:29
  TRACK 1081 AUDIO
    TITLE "TOEIC LR Kinnojyukugo_08_1081"
    INDEX 01 22:10:04
  TRACK 1082 AUDIO
    TITLE "TOEIC LR Kinnojyukugo_08_1082"
    INDEX 01 22:10:42
  TRACK 1083 AUDIO
    TITLE "TOEIC LR Kinnojyukugo_08_1083"
    INDEX 01 22:12:25
  TRACK 1084 AUDIO
    TITLE "TOEIC LR Kinnojyukugo_08_1084"
    INDEX 01 22:12:64
  TRACK 1085 AUDIO
    TITLE "TOEIC LR Kinnojyukugo_08_1085"
    INDEX 01 22:14:47
  TRACK 1086 AUDIO
    TITLE "TOEIC LR Kinnojyukugo_08_1086"
    INDEX 01 22:15:09
  TRACK 1087 AUDIO
    TITLE "TOEIC LR Kinnojyukugo_08_1087"
    INDEX 01 22:16:62
  TRACK 1088 AUDIO
    TITLE "TOEIC LR Kinnojyukugo_08_1088"
    INDEX 01 22:17:26
  TRACK 1089 AUDIO
    TITLE "TOEIC LR Kinnojyukugo_08_1089"
    INDEX 01 22:19:07
  TRACK 1090 AUDIO
    TITLE "TOEIC LR Kinnojyukugo_08_1090"
    INDEX 01 22:20:13
  TRACK 1091 AUDIO
    TITLE "TOEIC LR Kinnojyukugo_08_1091"
    INDEX 01 22:21:30
  TRACK 1092 AUDIO
    TITLE "TOEIC LR Kinnojyukugo_08_1092"
    INDEX 01 22:21:67
  TRACK 1093 AUDIO
    TITLE "TOEIC LR Kinnojyukugo_08_1093"
    INDEX 01 22:25:08
  TRACK 1094 AUDIO
    TITLE "TOEIC LR Kinnojyukugo_08_1094"
    INDEX 01 22:25:45
  TRACK 1095 AUDIO
    TITLE "TOEIC LR Kinnojyukugo_08_1095"
    INDEX 01 22:27:28
  TRACK 1096 AUDIO
    TITLE "TOEIC LR Kinnojyukugo_08_1096"
    INDEX 01 22:27:65
  TRACK 1097 AUDIO
    TITLE "TOEIC LR Kinnojyukugo_08_1097"
    INDEX 01 22:29:47
  TRACK 1098 AUDIO
    TITLE "TOEIC LR Kinnojyukugo_08_1098"
    INDEX 01 22:30:11
  TRACK 1099 AUDIO
    TITLE "TOEIC LR Kinnojyukugo_08_1099"
    INDEX 01 22:32:22
  TRACK 1100 AUDIO
    TITLE "TOEIC LR Kinnojyukugo_08_1100"
    INDEX 01 22:32:57
  TRACK 1101 AUDIO
    TITLE "TOEIC LR Kinnojyukugo_08_1101"
    INDEX 01 22:35:14
  TRACK 1102 AUDIO
    TITLE "TOEIC LR Kinnojyukugo_08_1102"
    INDEX 01 22:35:51
  TRACK 1103 AUDIO
    TITLE "TOEIC LR Kinnojyukugo_08_1103"
    INDEX 01 22:37:66
  TRACK 1104 AUDIO
    TITLE "TOEIC LR Kinnojyukugo_08_1104"
    INDEX 01 22:38:28
  TRACK 1105 AUDIO
    TITLE "TOEIC LR Kinnojyukugo_08_1105"
    INDEX 01 22:40:50
